<svg width="208" height="208" viewBox="0 0 208 208" fill="none" xmlns="http://www.w3.org/2000/svg">
<rect width="208" height="208" rx="5" fill="#D34CEF"/>
<path d="M117.101 177.047C112.701 177.755 108.178 178.122 103.567 178.122C99.3356 178.122 95.1808 177.812 91.1253 177.218C88.3972 166.002 83.1598 136.455 85.7288 127.55C88.0297 119.584 101.216 118.487 104.093 118.487C106.97 118.487 120.156 119.584 122.458 127.55C125.02 136.41 119.842 165.708 117.101 177.047Z" fill="white"/>
<path d="M104.887 112.101C114.579 112.101 122.437 104.598 122.437 95.3436C122.437 86.0889 114.579 78.5864 104.887 78.5864C95.1943 78.5864 87.3369 86.0889 87.3369 95.3436C87.3369 104.598 95.1943 112.101 104.887 112.101Z" fill="white"/>
<path d="M104.894 54.8623C78.104 54.8623 56.3096 75.6722 56.3096 101.252C56.3096 117.484 65.0896 131.798 78.3555 140.09C78.0875 135.601 78.1106 131.498 78.5742 128.257C70.9861 121.518 66.2353 111.905 66.2353 101.252C66.2353 80.8972 83.5768 64.3391 104.894 64.3391C126.209 64.3391 143.553 80.8972 143.553 101.252C143.553 111.465 139.18 120.724 132.135 127.413C132.701 130.606 132.774 134.772 132.528 139.378C145.179 131.004 153.478 117.035 153.478 101.252C153.478 75.6722 131.681 54.8623 104.894 54.8623Z" fill="white"/>
<path d="M104.574 31.0276C64.0183 31.0276 31.0273 62.5283 31.0273 101.252C31.0273 132.408 52.3911 158.892 81.8665 168.053C81.2407 164.775 80.5886 161.102 79.9993 157.287C57.0858 148.091 40.9496 126.434 40.9496 101.252C40.9496 67.7536 69.4912 40.5047 104.574 40.5047C139.654 40.5047 168.196 67.7536 168.196 101.252C168.196 126.016 152.593 147.373 130.279 156.822C129.693 160.666 129.037 164.377 128.405 167.693C157.301 158.216 178.121 132.013 178.121 101.252C178.121 62.5283 145.127 31.0276 104.574 31.0276Z" fill="white"/>
</svg>
