<svg width="1440" height="1765" viewBox="0 0 1440 1765" fill="none" xmlns="http://www.w3.org/2000/svg">
<path d="M657.737 367.731C309.919 487.626 84.5355 124.129 -4.23975 0C-939.119 492.377 -407.437 1955.4 -139.296 1743.5C90.381 1562 0.481873 1460.5 375.969 1565.5C684.643 1651.82 1479.15 1788.03 1504.39 1287.32C1535.08 678.57 1660.02 22.2397 657.737 367.731Z" fill="#EC9487"/>
<path d="M182.699 611.914C185.765 631.209 164.849 651.064 145.884 648.827C126.919 646.59 110.188 634.565 109.07 611.914C107.952 589.262 120.226 578.356 145.884 575C166.523 577.517 179.633 592.618 182.699 611.914Z" fill="#FEE4E1" fill-opacity="0.1"/>
<path d="M722.699 866.914C725.765 886.209 704.849 906.064 685.884 903.827C666.919 901.59 650.188 889.565 649.07 866.914C647.952 844.262 660.226 833.356 685.884 830C706.523 832.517 719.633 847.618 722.699 866.914Z" fill="#FEE4E1" fill-opacity="0.1"/>
<path d="M177.699 1258.91C180.765 1278.21 159.849 1298.06 140.884 1295.83C121.919 1293.59 105.188 1281.56 104.07 1258.91C102.952 1236.26 115.226 1225.36 140.884 1222C161.523 1224.52 174.633 1239.62 177.699 1258.91Z" fill="#FEE4E1" fill-opacity="0.1"/>
<path d="M1318.7 1095.91C1321.76 1115.21 1300.85 1135.06 1281.88 1132.83C1262.92 1130.59 1246.19 1118.56 1245.07 1095.91C1243.95 1073.26 1256.23 1062.36 1281.88 1059C1302.52 1061.52 1315.63 1076.62 1318.7 1095.91Z" fill="#FEE4E1" fill-opacity="0.1"/>
</svg>
