<svg width="1440" height="1126" viewBox="0 0 1440 1126" fill="none" xmlns="http://www.w3.org/2000/svg">
<path d="M559.393 10.7568C390.593 -30.4432 81.3937 56.5901 -52.1063 105.257C-549.106 117.257 -439.615 805.945 -183.606 1014.76C184.5 1315 540.5 922.5 770.393 817.757C939.191 740.85 1187.16 730.484 1318 909C1514.61 1177.24 1880.39 312.257 1361.39 322.757C842.393 333.257 770.393 62.2568 559.393 10.7568Z" fill="#EC9487"/>
<path d="M1334.7 608.914C1337.76 628.209 1316.85 648.064 1297.88 645.827C1278.92 643.59 1262.19 631.565 1261.07 608.914C1259.95 586.262 1272.23 575.356 1297.88 572C1318.52 574.517 1331.63 589.618 1334.7 608.914Z" fill="#FEE4E1" fill-opacity="0.1"/>
<path d="M1026.7 720.914C1029.76 740.209 1008.85 760.064 989.884 757.827C970.919 755.59 954.188 743.565 953.07 720.914C951.952 698.262 964.226 687.356 989.884 684C1010.52 686.517 1023.63 701.618 1026.7 720.914Z" fill="#FEE4E1" fill-opacity="0.1"/>
<path d="M455.699 314.914C458.765 334.209 437.849 354.064 418.884 351.827C399.919 349.59 383.188 337.565 382.07 314.914C380.952 292.262 393.226 281.356 418.884 278C439.523 280.517 452.633 295.618 455.699 314.914Z" fill="#FEE4E1" fill-opacity="0.1"/>
<path d="M364.699 608.914C367.765 628.209 346.849 648.064 327.884 645.827C308.919 643.59 292.188 631.565 291.07 608.914C289.952 586.262 302.226 575.356 327.884 572C348.523 574.517 361.633 589.618 364.699 608.914Z" fill="#FEE4E1" fill-opacity="0.1"/>
<path d="M698.699 580.914C701.765 600.209 680.849 620.064 661.884 617.827C642.919 615.59 626.188 603.565 625.07 580.914C623.952 558.262 636.226 547.356 661.884 544C682.523 546.517 695.633 561.618 698.699 580.914Z" fill="#FEE4E1" fill-opacity="0.1"/>
<path d="M485.845 488.956C487.42 498.864 476.679 509.06 466.941 507.911C457.202 506.762 448.61 500.587 448.036 488.956C447.462 477.324 453.765 471.723 466.941 470C477.539 471.292 484.271 479.047 485.845 488.956Z" fill="#FEE4E1" fill-opacity="0.1"/>
<path d="M137.699 988.914C140.765 1008.21 119.849 1028.06 100.884 1025.83C81.9194 1023.59 65.1875 1011.56 64.07 988.914C62.9524 966.262 75.2258 955.356 100.884 952C121.523 954.517 134.633 969.618 137.699 988.914Z" fill="#FEE4E1" fill-opacity="0.1"/>
<path d="M81.6989 348.914C84.7648 368.209 63.8494 388.064 44.8844 385.827C25.9194 383.59 9.18751 371.565 8.06995 348.914C6.95239 326.262 19.2258 315.356 44.8844 312C65.5228 314.517 78.6329 329.618 81.6989 348.914Z" fill="#FEE4E1" fill-opacity="0.1"/>
</svg>
