<svg width="48" height="48" viewBox="0 0 48 48" fill="none" xmlns="http://www.w3.org/2000/svg">
<path d="M29.9308 15.5065C43.002 12.9103 21.1634 16.3469 34.5026 14.7588C42.9495 13.753 20.5946 17.165 36.4296 15.4416C36.4296 16.1513 33.9846 16.2429 35.3034 16.4553C40.5843 16.9448 40.5843 18.3664 40.5843 19.7879C40.5843 20.4987 36.6256 20.2193 37.9444 20.7859C33.9868 21.2173 34.1411 21.556 38.1044 21.8342C39.4243 22.4008 37.9444 21.851 39.2633 22.773C40.5821 23.695 37.9444 25.0484 39.2633 25.9693L44.5442 25.3937C45.8608 25.9626 43.2243 27.6703 44.5442 27.5261C48.5019 27.8055 41.3907 29.1108 46.6683 28.5319C46.6683 29.2427 47.9917 29.8082 45.3517 30.4519C-0.837774 36.1907 49.7268 29.6864 3.54401 33.6482C-1.73469 33.8718 2.22518 32.0166 6.18393 30.519C4.8651 31.0186 4.8651 29.9524 3.54401 30.4519C3.54401 29.3858 6.18393 27.3227 11.4626 26.3929L7.50388 26.8243C6.18392 26.613 7.50388 25.7581 7.50388 25.0484C8.82497 24.9043 10.1427 24.7612 10.1427 24.4047V22.9887L4.85834 23.5665C6.17717 23.4223 7.49712 23.2793 7.49712 22.9239V21.5001C10.1359 20.8586 14.0947 21.138 16.7323 20.4943V19.4314C14.0913 19.3633 10.1325 20.15 7.49712 20.4373C8.81821 19.9377 8.81821 19.5834 8.81821 18.8726C12.7758 18.0903 16.7357 18.7218 20.6933 17.2242L16.7357 17.6545C19.3745 15.5892 25.9709 16.2933 29.9308 15.5065Z" fill="#315D7E"/>
<path d="M21.9411 28.6177C21.845 28.6487 21.7568 28.7006 21.6825 28.7697C21.6082 28.8388 21.5496 28.9234 21.5109 29.0178C21.4233 29.2178 21.3395 29.4217 21.2632 29.6312C21.1868 29.8406 21.1086 30.0332 21.0322 30.2106C21.0063 30.2867 20.96 30.354 20.8985 30.405C20.837 30.456 20.7627 30.4887 20.684 30.4993C20.6634 30.6755 20.5993 30.8436 20.4977 30.9881C20.399 31.1335 20.3115 31.2845 20.2184 31.4392C20.1302 31.5928 20.0632 31.7579 20.0191 31.9299C19.9767 32.1252 20.0003 32.3293 20.0862 32.5093C19.908 32.6648 19.7904 32.8797 19.7547 33.1152C19.71 33.3662 19.6616 33.6059 19.6057 33.8361C19.5558 34.0544 19.4598 34.2591 19.3245 34.4363C19.1916 34.6074 18.9495 34.7018 18.5982 34.7194C18.5311 34.815 18.5199 34.8716 18.5646 34.8892C18.6093 34.9081 18.641 34.9817 18.6633 35.1138C18.4744 35.0838 18.2811 35.1225 18.1177 35.2233C17.9844 35.3206 17.833 35.3893 17.6726 35.4253C17.2715 35.3478 16.9057 35.1413 16.6297 34.8364C16.3459 34.521 16.102 34.171 15.9033 33.7946C15.6958 33.4076 15.5093 33.0094 15.3446 32.6018C15.1795 32.1954 15.02 31.8444 14.866 31.5487C14.9308 31.3127 14.9417 31.0648 14.8977 30.8239C14.8655 30.6195 14.7864 30.4255 14.6667 30.2577C15.7469 27.8155 16.9264 25.2054 18.2052 22.4272C19.484 19.6491 20.6964 16.9118 21.8424 14.2155C22.3518 14.3621 22.8535 14.5353 23.3453 14.7345C23.8239 14.9263 24.2789 15.1739 24.7011 15.4724C25.1038 15.7567 25.4558 16.1083 25.7421 16.5123C26.0323 16.9272 26.2236 17.4046 26.3008 17.9071C26.2561 18.0467 26.2077 18.0958 26.1518 18.075C26.096 18.0543 26.0475 18.075 26.0028 18.1411C26.066 18.2036 26.1166 18.278 26.1518 18.36C26.163 18.404 26.163 18.4501 26.1518 18.494C26.1397 18.5561 26.1346 18.6195 26.1369 18.6828C26.1453 18.7918 26.1792 18.8972 26.2356 18.9904C26.1462 18.9791 26.0867 18.9904 26.0494 19.0451C26.0122 19.0999 25.9451 19.1018 25.8352 19.0678C25.9169 19.2543 25.9453 19.4602 25.9172 19.6623C25.8873 19.8138 25.8372 19.9605 25.7682 20.0983C25.701 20.2328 25.6455 20.373 25.6024 20.5172C25.5611 20.6998 25.5727 20.8905 25.636 21.0665C25.5797 21.0696 25.5266 21.0938 25.487 21.1344C25.4567 21.1686 25.4294 21.2052 25.405 21.2439C25.3802 21.2827 25.3522 21.3193 25.3212 21.3533C25.3025 21.3727 25.2787 21.3862 25.2526 21.3922C25.2265 21.3982 25.1993 21.3965 25.1741 21.3873C25.2397 21.8731 25.2615 22.364 25.2393 22.8538C25.2169 23.3482 25.2008 23.8471 25.1909 24.3504C25.1809 24.8537 25.1859 25.3777 25.2058 25.9225C25.2307 26.4843 25.3087 27.0424 25.4386 27.5891C26.2057 27.0599 26.8532 26.3715 27.3382 25.5696C27.8258 24.7502 28.2147 23.8746 28.4965 22.9613C28.8027 21.975 29.0294 20.9651 29.1744 19.9416C29.3271 18.8759 29.4923 17.7857 29.6698 16.6709C29.8729 16.4405 30.0303 16.1726 30.1335 15.882C30.2428 15.58 30.3415 15.2617 30.4296 14.927C30.5178 14.5923 30.6059 14.2589 30.6941 13.9267C30.7785 13.6083 30.8907 13.2982 31.0293 13C31.3251 12.9987 31.616 13.0761 31.873 13.2246C32.0989 13.3628 32.3143 13.518 32.5173 13.6889C32.7167 13.8575 32.9263 14.0132 33.1449 14.1551C33.3944 14.307 33.6808 14.3854 33.9718 14.3815C34.2363 14.7326 34.479 15.0742 34.7 15.4064C34.9184 15.7346 35.0645 16.1067 35.1283 16.4972C35.0168 16.6944 34.9334 16.9067 34.8807 17.1276C34.8267 17.3579 34.7652 17.5881 34.6944 17.8184C34.6301 18.044 34.5414 18.2617 34.43 18.4676C34.3129 18.6768 34.1551 18.8598 33.9662 19.0055C33.8992 19.5943 33.8166 20.1341 33.7185 20.6248C33.6198 21.1155 33.5193 21.6025 33.4206 22.0818C33.3219 22.5612 33.2343 23.0576 33.1729 23.5672C33.104 24.1191 33.0816 24.676 33.1058 25.2318C32.9295 25.7665 32.7433 26.3327 32.5471 26.9304C32.351 27.528 32.1964 28.0703 32.0834 28.5573C31.7386 28.8774 31.4578 29.2619 31.2565 29.6897C31.0591 30.1143 30.8487 30.539 30.6289 30.9655C30.5395 31.0655 30.4855 31.0938 30.4632 31.0523C30.4408 31.0108 30.3645 30.9844 30.2322 30.9768C30.2551 31.0415 30.2551 31.1122 30.2322 31.1769C30.2114 31.2234 30.183 31.2661 30.1484 31.3033C30.113 31.3492 30.0905 31.404 30.0833 31.4619C30.0758 31.5523 30.0932 31.6431 30.1335 31.7242C29.8222 31.8949 29.5424 32.119 29.3066 32.3866C29.0649 32.6558 28.8055 32.908 28.53 33.1416C28.238 33.3803 27.8999 33.5546 27.5374 33.653C27.0383 33.7602 26.5204 33.7368 26.0327 33.5851C25.1401 33.0252 24.3327 32.3367 23.6358 31.5411C22.9029 30.6772 22.3288 29.6871 21.9411 28.6177V28.6177Z" fill="white"/>
</svg>
