<svg width="208" height="208" viewBox="0 0 208 208" fill="none" xmlns="http://www.w3.org/2000/svg">
<rect width="208" height="208" rx="5.74586" fill="#FFFFFE"/>
<path d="M32 103.284C32 101.595 32 100.059 32 98.3704C32 93.15 35.9859 89.1578 40.8915 89.0043C46.1038 88.8507 50.243 92.8429 50.3963 98.0633C50.5496 101.441 50.5496 104.973 50.3963 108.351C50.243 113.571 46.1038 117.41 40.8915 117.256C35.9859 117.103 32.1533 113.111 32 108.044C32 106.508 32 104.973 32 103.284Z" fill="#1A73E8"/>
<path d="M157.017 103.284C157.017 101.595 157.017 100.059 157.017 98.3704C157.017 93.15 161.002 89.1578 165.908 89.0043C171.12 88.8507 175.26 92.8429 175.413 98.0633C175.566 101.441 175.566 104.973 175.413 108.351C175.26 113.571 171.12 117.41 165.908 117.256C161.002 117.103 157.17 113.111 157.017 108.044C157.017 106.508 157.017 104.973 157.017 103.284Z" fill="#4285F4"/>
<path d="M126.17 122.106C126.17 116.579 126.17 111.205 126.17 105.677C126.17 101.071 129.696 97.2324 133.988 96.7718C138.894 96.1576 143.033 99.0749 144.106 103.681C144.26 104.295 144.413 105.063 144.413 105.677C144.413 116.732 144.413 127.787 144.413 138.689C144.413 143.295 140.887 147.134 136.441 147.594C131.536 148.055 127.396 145.291 126.323 140.685C126.17 139.764 126.017 138.843 126.017 137.921C126.17 132.547 126.17 127.327 126.17 122.106Z" fill="#34A853"/>
<path d="M144.415 73.2795C144.415 74.9685 144.415 76.6574 144.415 78.4999C144.261 83.5669 140.275 87.4054 135.216 87.4054C130.311 87.4054 126.325 83.5669 126.172 78.4999C126.018 74.9685 126.018 71.437 126.172 67.9055C126.325 62.8386 130.311 59.1535 135.216 59C140.275 59 144.261 62.8386 144.415 67.7519C144.415 69.5945 144.415 71.437 144.415 73.2795Z" fill="#34A853"/>
<path d="M81.4129 84.4783C81.4129 90.0059 81.4129 95.3799 81.4129 100.907C81.4129 105.514 77.887 109.352 73.4412 109.813C68.6888 110.274 64.3963 107.51 63.3232 102.903C63.1699 102.136 63.0166 101.522 63.0166 100.754C63.0166 89.8523 63.0166 79.1043 63.0166 68.2028C63.0166 61.6004 69.6086 57.1477 75.5874 59.7579C79.1134 61.2934 81.2596 64.0571 81.2596 68.0492C81.5662 73.4232 81.4129 78.9508 81.4129 84.4783Z" fill="#E53935"/>
<path d="M81.412 133.151C81.412 134.994 81.412 136.683 81.412 138.525C81.2587 143.592 77.2728 147.431 72.3671 147.584C67.3081 147.584 63.3222 143.746 63.1689 138.679C63.1689 135.147 63.1689 131.616 63.1689 128.238C63.3222 123.171 67.3081 119.332 72.3671 119.332C77.2728 119.332 81.2587 123.171 81.412 128.238C81.5653 129.773 81.412 131.462 81.412 133.151Z" fill="#E53935"/>
<path d="M94.238 103.547C94.238 94.6413 94.238 85.7358 94.238 76.9839C94.238 71.9169 97.4574 68.3855 102.363 67.7713C107.115 67.1571 112.021 70.9957 112.328 75.7555C112.328 76.2161 112.328 76.6768 112.328 77.1374C112.328 94.7948 112.328 112.452 112.328 130.11C112.328 135.023 109.262 138.708 104.663 139.476C99.297 140.397 94.238 136.251 94.0847 130.724C93.9314 123.354 94.0847 115.83 94.0847 108.46C94.238 106.771 94.238 105.236 94.238 103.547Z" fill="#FBBC04"/>
<path d="M112.633 44.1259C112.633 45.8149 112.633 47.5039 112.633 49.3464C112.479 54.4133 108.493 58.4054 103.588 58.4054C98.6821 58.4054 94.543 54.4133 94.3896 49.4999C94.3896 45.9685 94.3896 42.437 94.3896 39.059C94.543 33.9921 98.6821 30 103.588 30C108.493 30 112.479 33.9921 112.633 38.9055C112.633 40.5945 112.633 42.437 112.633 44.1259Z" fill="#FBBC04"/>
<path d="M112.633 162.721C112.633 164.41 112.633 166.099 112.633 167.941C112.479 173.008 108.493 177 103.588 177C98.6821 177 94.543 173.008 94.3896 168.095C94.3896 164.563 94.3896 161.032 94.3896 157.654C94.543 152.587 98.6821 148.595 103.588 148.595C108.493 148.595 112.479 152.587 112.633 157.5C112.633 159.189 112.633 161.032 112.633 162.721Z" fill="#FBBC04"/>
</svg>
