<svg width="96" height="96" viewBox="0 0 96 96" fill="none" xmlns="http://www.w3.org/2000/svg">
<g clip-path="url(#clip0)">
<path d="M19.1919 50.366C27.8608 48.6309 38.4478 48.4905 47.2018 46.8181C57.7029 44.717 78.4922 43.0946 88.9941 41.9429C88.9941 42.4172 87.3725 42.4784 88.2471 42.6203C91.7473 42.9475 91.7473 43.8976 91.7473 44.8477C91.7473 45.3227 89.1218 45.136 89.9965 45.5147C87.3717 45.803 87.4741 46.0293 90.1025 46.2153C90.9779 46.594 89.9965 46.2265 90.8711 46.8427C91.7458 47.459 89.9965 48.3635 90.8711 48.979L94.3735 48.5943C95.2466 48.9745 93.4981 50.1158 94.3735 50.0194C96.9982 50.2062 92.2821 51.0786 95.7822 50.6917C95.7822 51.1667 96.6598 51.5447 94.909 51.9749C64.2759 55.8104 32.3207 59.8431 1.69208 62.4909C-1.80878 62.6403 0.817428 61.4004 3.44289 60.3995C2.56823 60.7334 2.56823 60.0208 1.69208 60.3547C1.69208 59.6421 3.44289 58.2633 6.94375 57.6419L4.31829 57.9302C3.44289 57.789 4.31829 57.2176 4.31829 56.7433C5.19444 56.6469 6.06835 56.5513 6.06835 56.3131V55.3667L2.56375 55.7529C3.43841 55.6565 4.31381 55.5609 4.31381 55.3234V54.3718C6.06387 53.9431 8.68933 54.1298 10.4386 53.6996V52.9892C8.68709 52.9437 6.06163 53.4695 4.31381 53.6615C5.18996 53.3276 5.18996 53.0908 5.18996 52.6158C7.81467 52.0929 10.4409 52.5149 13.0656 51.514L10.4409 51.8016C12.1909 50.4213 16.5657 50.8918 19.1919 50.366Z" fill="#315D7E"/>
<path d="M16.0929 48.7418C15.844 48.8488 15.5743 48.9579 15.284 49.0689C15.0027 49.1783 14.7085 49.2508 14.4086 49.2848C13.9664 49.3346 13.6179 49.2624 13.3629 49.0682C13.3347 48.9992 13.2945 48.9357 13.2442 48.8807C13.2168 48.8477 13.1918 48.8127 13.1695 48.7761C13.1439 48.7261 13.1281 48.6716 13.1231 48.6156C13.0142 48.4984 12.9288 48.3615 12.8714 48.2122C12.8093 48.0544 12.7669 47.8896 12.7452 47.7215C12.7234 47.5481 12.7189 47.3729 12.7318 47.1986C12.7445 47.0252 12.7735 46.8534 12.8184 46.6855C12.8353 46.6509 12.8464 46.6138 12.8513 46.5757C12.8557 46.5398 12.8625 46.501 12.8714 46.4539C12.9065 46.309 12.9461 46.1679 12.9842 46.0304C13.0202 45.9015 13.0762 45.779 13.15 45.6674C13.1322 45.6255 13.123 45.5804 13.123 45.5348C13.123 45.4893 13.1322 45.4442 13.15 45.4023C13.1827 45.3067 13.2227 45.2138 13.2695 45.1244C13.393 44.7758 13.4969 44.4793 13.581 44.2348C13.6652 43.9903 13.7513 43.7488 13.8395 43.5103C13.9888 43.0955 14.1303 42.6867 14.2637 42.2838C14.3972 41.881 14.5164 41.4477 14.6215 40.9842C14.6927 40.9344 14.7457 40.8978 14.7806 40.8744C14.8336 40.8504 14.8784 40.8325 14.9135 40.8198C15.0953 40.889 15.2815 40.9462 15.4707 40.9909C15.6432 41.039 15.8225 41.0574 16.0011 41.0454C16.0488 41.0672 16.0933 41.0957 16.1333 41.1298C16.1496 41.1492 16.1673 41.1674 16.1863 41.1843C16.2802 41.2841 16.3647 41.3924 16.4388 41.5078C16.509 41.619 16.5314 41.7737 16.5045 41.9716C16.4512 42.0567 16.4116 42.1008 16.3857 42.1038C16.3482 42.2617 16.3015 42.4173 16.2461 42.5699C16.1963 42.6989 16.1465 42.8281 16.0967 42.9575C16.0344 43.0975 15.9769 43.2364 15.9241 43.3743C15.8644 43.5384 15.8201 43.7077 15.7919 43.88C15.7611 43.9185 15.7359 43.9613 15.7172 44.007C15.7038 44.0443 15.6881 44.0854 15.6709 44.1317C15.6537 44.178 15.6328 44.2266 15.6112 44.2774C15.5882 44.3295 15.5543 44.3761 15.5118 44.4141C15.4938 44.6088 15.4514 44.8005 15.3856 44.9847C15.3283 45.1341 15.2688 45.2822 15.2071 45.4291C15.1005 45.6975 15.0054 45.9642 14.9218 46.2291C14.8343 46.5188 14.7841 46.8185 14.7724 47.1209C14.8115 47.1002 14.854 47.0865 14.8979 47.0806L15.0106 47.0687C15.1035 47.06 15.1971 47.063 15.2892 47.0776C15.554 46.9075 15.8488 46.7896 16.1579 46.7303C16.4716 46.6695 16.7834 46.6178 17.0931 46.5749L17.4665 46.5346C17.5829 46.5221 17.698 46.5004 17.8109 46.4696C17.8584 46.494 17.9085 46.5131 17.9603 46.5264C17.9937 46.5278 18.0272 46.5263 18.0604 46.5219C18.1129 46.5154 18.1659 46.5139 18.2187 46.5174C18.3093 46.5945 18.4127 46.6551 18.5242 46.6967C18.624 46.7311 18.7258 46.7595 18.8289 46.7818C18.926 46.8072 19.0217 46.8341 19.1143 46.8632C19.2109 46.8953 19.3025 46.9411 19.3862 46.9992L19.4788 47.5594C19.5408 47.6341 19.5669 47.6826 19.5587 47.7088C19.5623 47.7683 19.5433 47.8269 19.5057 47.8731L19.5318 48.0165C19.4347 48.0411 19.3427 48.0826 19.2599 48.139C19.2107 48.1807 19.1643 48.2256 19.121 48.2735C19.0719 48.2864 19.022 48.2964 18.9716 48.3033L18.885 48.313C18.7316 48.3343 18.5813 48.3732 18.4368 48.4288C18.1928 48.3755 17.9418 48.3626 17.6936 48.3907C17.594 48.4017 17.4924 48.4174 17.3889 48.4378L17.0707 48.499C16.9646 48.5289 16.8563 48.5536 16.7458 48.5737C16.6352 48.5939 16.5217 48.6118 16.4074 48.6245L16.0929 48.7418Z" fill="#0E0E2C"/>
<path d="M27.2321 40.2003C27.2397 40.2459 27.242 40.2923 27.2388 40.3385C27.2336 40.3706 27.2299 40.3997 27.2254 40.4266C27.2115 40.5017 27.2185 40.5792 27.2456 40.6507C27.0593 40.9709 26.8447 41.1999 26.6017 41.3378C26.3528 41.4775 26.088 41.5865 25.813 41.6628C25.5301 41.7429 25.2406 41.8256 24.9443 41.9107C24.6273 42.0063 24.3292 42.1556 24.0629 42.3522C24.0114 42.336 23.9572 42.3307 23.9036 42.3366C23.8499 42.3425 23.7981 42.3595 23.7514 42.3865C23.6257 42.4483 23.4864 42.477 23.3466 42.4702C23.292 42.5302 23.2239 42.5763 23.1479 42.6046C23.068 42.636 22.9888 42.6689 22.9089 42.704C22.944 42.7791 22.9599 42.8617 22.9552 42.9445C22.948 43.0135 22.9596 43.0832 22.9888 43.1462C23.3345 43.1344 23.6784 43.0922 24.0166 43.0199C24.3901 42.9452 24.7635 42.881 25.1235 42.8325C25.1325 42.8758 25.128 42.9049 25.1101 42.9198C25.1009 42.9297 25.0948 42.942 25.0924 42.9552C25.09 42.9685 25.0915 42.9821 25.0967 42.9945C25.1639 43.036 25.2263 43.0848 25.2826 43.1402C25.3446 43.1992 25.4066 43.2567 25.4686 43.312C25.5262 43.3644 25.5908 43.4087 25.6606 43.4434C25.7334 43.4765 25.8153 43.4839 25.8929 43.4644C25.9299 43.5345 25.9551 43.6102 25.9676 43.6884C25.9801 43.7772 25.9688 43.8677 25.9347 43.9506C25.7928 44.0631 25.6514 44.1779 25.5105 44.2949C25.3682 44.4117 25.2185 44.519 25.0623 44.6161C24.9067 44.7131 24.7424 44.7954 24.5716 44.8619C24.3868 44.9321 24.1923 44.9737 23.9949 44.9851L23.8956 44.9956C23.8642 44.9954 23.8338 44.9849 23.8089 44.9657C23.7206 45.0234 23.6153 45.0497 23.5102 45.0404C23.405 45.0312 23.2998 45.0575 23.2114 45.1151C23.0974 45.0805 22.9769 45.0733 22.8596 45.0942C22.7387 45.114 22.6152 45.1117 22.4951 45.0874C22.3519 45.2912 22.2233 45.5048 22.1104 45.7268C21.9933 45.9563 21.8915 46.1934 21.8057 46.4364C22.055 46.4496 22.3051 46.4399 22.5526 46.4073C22.7513 46.3766 22.9388 46.34 23.1158 46.299L23.6596 46.1727C23.8913 46.1238 24.1261 46.0913 24.3624 46.0756C24.5555 45.9526 24.7686 45.8641 24.9921 45.8142C25.2229 45.7616 25.4481 45.6865 25.6643 45.5901C25.7366 45.6102 25.8011 45.6516 25.8496 45.7089C25.9026 45.7694 25.9534 45.8254 26.0027 45.8777C26.0479 45.9278 26.0979 45.9733 26.1521 46.0136C26.1809 46.0329 26.2137 46.0457 26.248 46.0512C26.2823 46.0566 26.3173 46.0545 26.3507 46.045C26.3865 46.0763 26.4125 46.1173 26.4254 46.163C26.4381 46.2101 26.4493 46.2549 26.4583 46.2982C26.4651 46.3372 26.481 46.374 26.5046 46.4058C26.527 46.4349 26.5644 46.4416 26.6174 46.4267C26.5108 46.6929 26.3558 46.937 26.1603 47.1467C25.9894 47.3188 25.7897 47.4596 25.5702 47.5628C25.3328 47.6725 25.0864 47.7617 24.8337 47.8294C24.5643 47.9036 24.2656 47.9893 23.9374 48.0864C23.8743 48.1116 23.8049 48.1169 23.7387 48.1013C23.6782 48.0845 23.615 48.0802 23.5527 48.0886C23.3496 48.1548 23.1066 48.2213 22.8237 48.288C22.5402 48.3546 22.2521 48.3995 21.9618 48.4225C21.6833 48.4461 21.403 48.4391 21.126 48.4016C20.8862 48.3753 20.6598 48.2778 20.4761 48.1215C20.4074 48.0691 20.3593 47.9943 20.3402 47.9101C20.3276 47.8684 20.3045 47.8306 20.2731 47.8004C20.2417 47.7702 20.2031 47.7486 20.1609 47.7375C20.1503 47.6104 20.1326 47.484 20.1079 47.3589C20.0818 47.2207 20.0549 47.075 20.0287 46.9234C20.0026 46.7718 19.9824 46.6246 19.969 46.4752C19.9551 46.3373 19.9617 46.1982 19.9884 46.0622C20.0158 45.9271 20.0724 45.7997 20.1542 45.6887C20.1939 45.6396 20.2222 45.5823 20.2372 45.521C20.2522 45.4597 20.2534 45.3958 20.2409 45.3339C20.2605 45.3293 20.2783 45.3192 20.2924 45.3048C20.3064 45.2904 20.316 45.2722 20.32 45.2525C20.329 45.2114 20.3641 45.1928 20.4261 45.1942C20.4791 45.0292 20.5366 44.8731 20.5986 44.7244C20.6606 44.5758 20.7249 44.4324 20.7913 44.2927C20.8578 44.153 20.9236 44.0104 20.99 43.8662C21.0565 43.722 21.12 43.5622 21.182 43.3874C21.0648 43.2949 20.9715 43.1755 20.9101 43.0394C20.8536 42.912 20.8115 42.7787 20.7846 42.642C20.7577 42.508 20.7356 42.3691 20.7181 42.2252C20.6997 42.0782 20.6687 41.933 20.6255 41.7912C20.7108 41.6521 20.821 41.5298 20.9504 41.4305C21.0798 41.3315 21.2199 41.2474 21.368 41.1795C21.5273 41.1066 21.6912 41.0443 21.8587 40.9928C22.035 40.9382 22.221 40.8777 22.4152 40.8128C22.7692 40.6589 23.0854 40.5356 23.3638 40.443C23.6421 40.3504 23.916 40.2695 24.1854 40.2003C24.4548 40.1311 24.7356 40.0628 25.0279 39.9956C25.3202 39.9284 25.6516 39.8388 26.0221 39.7267C26.0507 39.7574 26.0854 39.7817 26.124 39.798C26.1627 39.8143 26.2043 39.8224 26.2462 39.8216C26.2813 39.7387 26.3209 39.7095 26.3724 39.7349C26.4239 39.7603 26.4404 39.7349 26.4322 39.6558C26.5176 39.7933 26.633 39.9097 26.7698 39.9964C26.9143 40.0843 27.0697 40.1529 27.2321 40.2003V40.2003Z" fill="#0E0E2C"/>
<path d="M34.457 40.4946C34.2163 40.5225 33.9774 40.5641 33.7415 40.6194C33.4845 40.6791 33.2326 40.7401 32.9856 40.8024C32.8086 40.8479 32.6383 40.889 32.4747 40.9241C32.3111 40.9592 32.1632 40.9899 32.031 41.013C31.9693 41.2122 31.9073 41.3915 31.845 41.5508C31.7828 41.7102 31.717 41.863 31.6478 42.0094C31.5769 42.167 31.5126 42.3269 31.4551 42.4875C31.3976 42.648 31.3423 42.8206 31.2893 43.0028C31.2012 43.1522 31.1282 43.2907 31.0704 43.4181C31.01 43.553 30.9635 43.6936 30.9315 43.8379C30.83 43.9732 30.7494 44.123 30.6925 44.2823C30.6464 44.4105 30.6068 44.5409 30.5737 44.673L30.5207 44.838C30.481 44.8768 30.4492 44.923 30.4273 44.974C30.4151 45.0109 30.3922 45.0434 30.3616 45.0674C30.3499 45.172 30.3182 45.2734 30.2682 45.3661C30.2517 45.4086 30.2385 45.4523 30.2287 45.4968C30.2215 45.5255 30.217 45.5547 30.2152 45.5842C30.2195 45.6173 30.2158 45.6509 30.2044 45.6823C30.1929 45.7136 30.1741 45.7417 30.1495 45.7642C30.1577 45.8102 30.1577 45.8572 30.1495 45.9032C30.1405 45.9532 30.1316 46.0003 30.1226 46.0458C30.0986 46.1285 30.0898 46.2148 30.0965 46.3005C30.1226 46.3327 30.1465 46.361 30.1711 46.3849C30.1954 46.414 30.2114 46.4491 30.2175 46.4865C30.255 46.509 30.2951 46.5268 30.337 46.5396C30.3876 46.5693 30.4408 46.5943 30.4961 46.6143L30.6156 46.7338C30.6594 46.9857 30.6196 47.1934 30.4961 47.3567C30.3636 47.539 30.1383 47.6475 29.8201 47.6824L29.661 47.7003C29.6272 47.6745 29.5999 47.6413 29.5811 47.6032L29.4085 47.5554C29.3596 47.5388 29.3178 47.5061 29.2898 47.4628C29.1747 47.4217 29.0814 47.3881 29.0112 47.3604L28.8917 47.3074V47.1483C28.8294 47.0748 28.7822 46.9898 28.7527 46.8981C28.7213 46.8053 28.6963 46.7105 28.678 46.6143C28.6601 46.5396 28.6399 46.4649 28.6183 46.3954C28.5986 46.3327 28.5697 46.2733 28.5324 46.2191C28.5079 45.7754 28.5584 45.3307 28.6818 44.9038C28.7968 44.5378 28.9161 44.1842 29.0395 43.8431C29.1142 43.6586 29.1807 43.4697 29.2517 43.2829C29.3235 43.0915 29.3856 42.8966 29.4377 42.6988L29.5572 42.5495C29.6184 42.4001 29.67 42.2791 29.7066 42.182C29.7432 42.0849 29.788 41.9848 29.832 41.8832C29.8589 41.819 29.8828 41.7562 29.9067 41.6965C29.9306 41.6367 29.9486 41.5837 29.9665 41.5374C29.9132 41.5433 29.8634 41.5508 29.8171 41.5598C29.7723 41.5695 29.7282 41.5807 29.6841 41.5941C29.6401 41.6076 29.5826 41.621 29.5348 41.6307C29.487 41.6404 29.4459 41.6464 29.4018 41.6516C29.358 41.658 29.3134 41.658 29.2696 41.6516C29.1714 41.7063 29.0632 41.7406 28.9514 41.7525L28.8185 41.7674C28.7936 41.7702 28.7686 41.7702 28.7438 41.7674C28.7239 41.7659 28.7039 41.7659 28.684 41.7674C28.6095 41.7726 28.537 41.7943 28.4719 41.8309L28.1664 41.8645L28.0342 41.8787C28.0117 41.8818 27.9895 41.8866 27.9677 41.8929C27.946 41.8994 27.9238 41.9039 27.9012 41.9063C27.8351 41.9124 27.7686 41.9124 27.7025 41.9063C27.6249 41.8987 27.5492 41.878 27.4785 41.8451C27.3724 41.7151 27.3014 41.6479 27.2663 41.6427L27.1468 41.4933C27.1385 41.4423 27.1252 41.3923 27.1072 41.3439C27.0893 41.2976 27.0721 41.2438 27.0542 41.1841C27.0191 41.0997 26.9855 41.0085 26.9549 40.9099C26.9212 40.793 26.9056 40.6716 26.9086 40.5499C26.9126 40.4916 26.9308 40.4352 26.9616 40.3856C26.9877 40.3475 27.0101 40.3109 27.0281 40.2855L27.0677 40.0823L27.2402 40.0764L27.6137 40.0353C27.896 40.0044 28.1833 39.9618 28.4756 39.9076C28.7679 39.8533 29.0684 39.796 29.3772 39.7358L29.9142 39.6237L30.4774 39.5094C30.5132 39.4258 30.5521 39.3466 30.5835 39.2719L30.7164 39.1912C30.8753 39.1649 30.988 39.1723 31.0548 39.2137C31.1129 39.2499 31.1683 39.2904 31.2206 39.3347C31.4148 39.2958 31.6115 39.2545 31.8107 39.2107C32.0098 39.1669 32.2108 39.1171 32.4134 39.0613C32.7122 38.9866 33.0169 38.9119 33.3217 38.8417C33.6127 38.7756 33.9072 38.7257 34.2038 38.6923C34.3278 38.6789 34.4466 38.6699 34.5616 38.6662C34.6679 38.6621 34.7744 38.6639 34.8805 38.6714L35.0127 38.7461C35.0404 38.7981 35.0789 38.8437 35.1255 38.8798C35.1741 38.9186 35.2249 38.9545 35.2749 38.9956C35.3896 39.0897 35.496 39.1934 35.5931 39.3055C35.6992 39.4265 35.739 39.6168 35.7126 39.8762C35.6721 39.9528 35.6182 40.0216 35.5535 40.0794L35.434 40.2511H35.3018C35.2506 40.2561 35.2003 40.2682 35.1524 40.287C35.1083 40.3049 35.0643 40.3258 35.0202 40.3482C34.9761 40.3707 34.9493 40.3886 34.9141 40.4058C34.8755 40.4242 34.8356 40.4397 34.7946 40.4521C34.7147 40.461 34.6505 40.4663 34.6027 40.467C34.5549 40.4678 34.5116 40.4887 34.457 40.4946Z" fill="#0E0E2C"/>
<path d="M37.3492 38.5072C37.3403 38.552 37.3201 38.5819 37.2895 38.5863C37.2714 38.5927 37.2552 38.6034 37.2421 38.6175C37.2291 38.6315 37.2197 38.6485 37.2148 38.667C37.1797 38.7686 37.1573 38.8306 37.1483 38.8537C37.1437 38.8701 37.1346 38.8848 37.1221 38.8963C37.1088 38.9064 37.0974 38.9188 37.0885 38.9329C37.0595 38.9867 37.0345 39.0427 37.0138 39.1002C36.9464 39.2402 36.8688 39.375 36.7815 39.5036C36.6972 39.6235 36.6363 39.7583 36.6023 39.9009C36.4783 40.0212 36.3259 40.1721 36.1452 40.3558C35.9973 40.514 35.8247 40.6472 35.6343 40.7502C35.5551 40.7233 35.4289 40.6822 35.2563 40.6255C35.0867 40.5707 34.9226 40.4999 34.7663 40.4141C34.6314 40.3457 34.5117 40.2506 34.4145 40.1347C34.3346 40.0332 34.3398 39.9234 34.4414 39.8068C34.6081 39.6095 34.7485 39.3913 34.859 39.1577C34.9822 38.9013 35.0885 38.6371 35.1771 38.3668C35.2709 38.0838 35.3505 37.7964 35.4154 37.5055C35.4816 37.2103 35.5414 36.9274 35.5947 36.657C35.609 36.6718 35.6276 36.6817 35.6478 36.6853C35.6681 36.689 35.6889 36.6861 35.7075 36.6772C35.7477 36.66 35.7838 36.6346 35.8135 36.6025C35.8476 36.5642 35.8786 36.5232 35.9061 36.48C35.9375 36.4322 35.9614 36.3941 35.9808 36.3657C36.0657 36.42 36.1571 36.4634 36.2527 36.4949C36.3804 36.5427 36.5156 36.5876 36.6568 36.6294C36.798 36.6712 36.9309 36.7078 37.0549 36.7384C37.1418 36.7624 37.2305 36.7794 37.3201 36.7892C37.4155 36.9175 37.475 37.0688 37.4926 37.2277C37.5021 37.3706 37.5243 37.5123 37.5591 37.6512C37.5006 37.7134 37.4674 37.7951 37.4657 37.8805C37.4568 37.9828 37.4478 38.0568 37.4396 38.1046C37.4306 38.1793 37.4149 38.2204 37.3933 38.236C37.3614 38.2687 37.3405 38.3105 37.3335 38.3555C37.3293 38.3684 37.3277 38.382 37.3289 38.3954C37.33 38.4089 37.3339 38.422 37.3403 38.434C37.3516 38.4566 37.3548 38.4825 37.3492 38.5072V38.5072Z" fill="#0E0E2C"/>
<path d="M36.3413 40.6991C36.4018 40.509 36.5039 40.3348 36.6401 40.189C36.774 40.043 36.9244 39.9129 37.0882 39.8013C37.2504 39.6915 37.4213 39.595 37.5991 39.513C37.7762 39.4323 37.9435 39.3636 38.1033 39.2986C38.4569 39.1099 38.8346 38.9249 39.2364 38.7437C39.6383 38.5624 40.0496 38.3956 40.4703 38.2432C40.8905 38.0913 41.3228 37.9751 41.7625 37.8959C42.2239 37.8169 42.6958 37.8214 43.1556 37.9094C43.1817 37.9948 43.2219 38.0753 43.2743 38.1476C43.3274 38.2223 43.3826 38.297 43.4401 38.3717C43.4937 38.4408 43.5435 38.5126 43.5895 38.5868C43.6328 38.6545 43.6601 38.7311 43.6695 38.8109C43.7536 38.8761 43.8254 38.9558 43.8816 39.0462C43.9373 39.1586 43.9467 39.2884 43.9077 39.4077C43.8196 39.4884 43.7334 39.5631 43.6493 39.6318C43.5637 39.6997 43.4727 39.7606 43.3774 39.814C43.0466 39.7704 42.7109 39.7803 42.3832 39.8432C42.0471 39.9064 41.7466 39.9617 41.4817 40.009C41.4443 39.9745 41.3999 39.9486 41.3516 39.9328C41.3032 39.9171 41.2521 39.912 41.2016 39.9179C41.083 39.9321 40.9669 39.9626 40.8565 40.0082L40.4987 40.1539C40.2585 40.1615 40.0265 40.2435 39.8347 40.3884C39.707 40.425 39.5673 40.4631 39.4172 40.4945C39.4082 40.5393 39.4172 40.5669 39.4441 40.5774C39.4702 40.5879 39.4747 40.6162 39.4568 40.6618C39.5119 40.7198 39.5841 40.7585 39.6629 40.7723C39.7466 40.7895 39.8347 40.806 39.9281 40.8224C40.0124 40.8373 40.0947 40.8624 40.1731 40.8971C40.2096 40.9134 40.2419 40.9377 40.2678 40.9683C40.2936 40.9988 40.3123 41.0347 40.3225 41.0734C40.4404 41.057 40.5606 41.0762 40.6675 41.1286C40.7607 41.1767 40.8421 41.2448 40.9058 41.3281C40.9674 41.4093 41.0147 41.5005 41.0455 41.5977C41.0741 41.6838 41.0897 41.7737 41.0918 41.8644C41.1187 41.9323 41.1493 41.96 41.1844 41.9473C41.206 41.9423 41.2286 41.9433 41.2497 41.9503C41.2708 41.9573 41.2895 41.9699 41.3039 41.9869C41.3389 42.1129 41.4076 42.2271 41.5026 42.317C41.6073 42.4224 41.6927 42.5452 41.7551 42.68C41.7725 42.8996 41.7857 43.0948 41.7947 43.2656C41.8015 43.4481 41.77 43.6301 41.702 43.7997C41.5703 44.1393 41.3844 44.4553 41.1515 44.7356C40.9147 45.0199 40.648 45.2781 40.3561 45.5056C40.0584 45.7379 39.741 45.9436 39.4075 46.1204C39.0713 46.2986 38.7444 46.4537 38.4267 46.5857C38.3909 46.5811 38.3545 46.5852 38.3207 46.5977C38.2848 46.6104 38.2759 46.5894 38.2938 46.5342C38.2289 46.6001 38.1493 46.6498 38.0615 46.6791C37.9732 46.7067 37.8819 46.7235 37.7896 46.7291C37.6925 46.7351 37.5932 46.7388 37.4908 46.7418C37.3941 46.7431 37.2981 46.7579 37.2055 46.7859C37.1435 46.7306 37.0882 46.6776 37.0397 46.6253C36.985 46.5654 36.9446 46.4939 36.9217 46.4162C36.8776 46.4206 36.8574 46.4012 36.8627 46.3564C36.8679 46.3116 36.8515 46.2907 36.8156 46.2951C36.8505 46.2469 36.8759 46.1924 36.8903 46.1346C36.8864 46.127 36.8808 46.1204 36.8739 46.1154C36.867 46.1103 36.8591 46.1069 36.8507 46.1054C36.8295 46.0999 36.8094 46.0911 36.791 46.0793C36.773 46.0681 36.7685 46.0479 36.7775 46.021C36.8133 45.9428 36.827 45.8563 36.8171 45.7708C36.8081 45.6789 36.7999 45.5856 36.791 45.4892C36.7818 45.3951 36.7886 45.3002 36.8111 45.2084C36.8256 45.1585 36.8501 45.1122 36.8831 45.0721C36.9161 45.032 36.9569 44.9991 37.0031 44.9753C37.2931 44.979 37.5819 44.9361 37.8583 44.8483C38.1225 44.7633 38.3779 44.653 38.6209 44.5189C38.8595 44.3865 39.087 44.2466 39.3036 44.0992C39.5202 43.9518 39.7346 43.8178 39.9467 43.6973C39.9704 43.6203 40.0087 43.5485 40.0595 43.4859C40.1063 43.4289 40.1561 43.3746 40.2089 43.3231C40.2628 43.2733 40.3127 43.2193 40.3583 43.1618C40.404 43.0996 40.4357 43.0283 40.4509 42.9526C40.4591 42.8899 40.4442 42.854 40.4046 42.8451C40.365 42.8361 40.3449 42.8047 40.3449 42.7517L40.1955 42.7278C40.0132 42.6446 39.8216 42.5834 39.6248 42.5456C39.4389 42.51 39.2568 42.4568 39.081 42.3865C39.0426 42.4156 38.9988 42.4367 38.9521 42.4487C38.9054 42.4606 38.8568 42.4631 38.8092 42.4559C38.7017 42.4353 38.5933 42.4206 38.4842 42.4119C38.1951 42.4268 37.9054 42.4268 37.6163 42.4119C37.343 42.3996 37.0728 42.3493 36.8134 42.2625C36.7972 42.222 36.775 42.1843 36.7476 42.1504C36.7207 42.1176 36.6729 42.1146 36.5982 42.14C36.5455 42.0752 36.4924 42.0125 36.4391 41.9517C36.3844 41.8887 36.3356 41.8207 36.2935 41.7486C36.3114 41.641 36.3241 41.5484 36.3331 41.4722C36.3369 41.4335 36.3317 41.3944 36.318 41.358C36.3043 41.3216 36.2823 41.2889 36.2539 41.2623C36.289 41.1436 36.3152 41.048 36.3331 40.9755C36.3536 40.8848 36.3564 40.7909 36.3413 40.6991V40.6991Z" fill="#0E0E2C"/>
<path d="M52.9699 44.8688C52.7968 44.8955 52.6221 44.9102 52.447 44.9128C52.2447 44.9166 52.0464 44.9702 51.8697 45.0689C51.3927 45.1023 50.9139 45.0973 50.4378 45.054C49.9869 45.0157 49.5393 44.9451 49.0985 44.8426C49.0104 44.7552 48.9215 44.6746 48.8334 44.5999C48.7301 44.5198 48.6058 44.4713 48.4756 44.4602C48.2627 44.3153 48.0857 44.1237 47.958 43.9C47.8234 43.6662 47.7166 43.4176 47.6398 43.159C47.5601 42.891 47.5068 42.6158 47.4807 42.3374C47.4541 42.0621 47.4449 41.7855 47.4531 41.5091C47.5754 41.1156 47.766 40.7467 48.0162 40.4193C48.2592 40.1056 48.5082 39.7931 48.7632 39.4819C48.8589 39.4311 48.9461 39.3655 49.0216 39.2877C49.0795 39.2238 49.1416 39.1639 49.2076 39.1084L49.4063 38.9404C49.4749 38.8827 49.5352 38.8158 49.5855 38.7417C49.758 38.6841 49.9211 38.6016 50.0696 38.4967C50.2062 38.3974 50.3414 38.2943 50.4736 38.1867C50.6058 38.0792 50.7433 37.9783 50.8852 37.8835C51.0379 37.7829 51.2028 37.7024 51.3759 37.6437C51.4462 37.5562 51.5314 37.4818 51.6277 37.4241C51.7272 37.3648 51.8268 37.3053 51.9264 37.2456C52.028 37.1858 52.1259 37.1238 52.2185 37.0611C52.3089 37.0003 52.3839 36.9192 52.4373 36.8243C52.4555 36.8552 52.4849 36.878 52.5193 36.8879C52.5538 36.8978 52.5908 36.894 52.6226 36.8773C52.7025 36.8467 52.7772 36.8139 52.8466 36.7795C52.8652 36.7724 52.8851 36.7699 52.9048 36.7724C52.9245 36.7749 52.9433 36.7822 52.9594 36.7937C52.9901 36.8168 53.0192 36.84 53.0453 36.8639C53.0655 36.8843 53.0917 36.8976 53.12 36.902C53.1417 36.902 53.1619 36.8826 53.1798 36.8363C53.2238 36.831 53.2373 36.852 53.2194 36.8983C53.2014 36.9446 53.1887 36.9767 53.1798 36.9954C53.2098 36.9863 53.2414 36.984 53.2724 36.9886C53.3034 36.9933 53.333 37.0048 53.359 37.0223C53.4294 37.0616 53.5104 37.0781 53.5906 37.0693C53.6259 37.1096 53.6349 37.1418 53.6175 37.1657C53.5968 37.2006 53.5874 37.241 53.5906 37.2814C53.856 37.3312 54.0241 37.4388 54.0948 37.6041C54.1653 37.7748 54.1701 37.9656 54.1082 38.1397C54.0383 38.3457 53.9253 38.5344 53.7766 38.6931C53.6357 38.8562 53.4587 38.9841 53.2597 39.0666C52.8344 39.2284 52.4343 39.3985 52.0594 39.5768C51.7034 39.7397 51.3884 39.9804 51.1377 40.2811C50.9376 40.3596 50.7482 40.4627 50.5737 40.5881C50.4095 40.7083 50.2544 40.8406 50.1099 40.984C49.9642 41.1281 49.8268 41.2753 49.6991 41.4269C49.5713 41.5785 49.4354 41.7257 49.2942 41.8751C49.3079 41.9764 49.2868 42.0793 49.2345 42.1671C49.1859 42.2418 49.1396 42.3128 49.0956 42.3912C49.1097 42.5086 49.1409 42.6234 49.1882 42.7318C49.2329 42.8285 49.2827 42.9228 49.3376 43.0141C49.9514 43.1294 50.5766 43.1723 51.2004 43.1419C51.8582 43.1135 52.519 43.0674 53.1828 43.0037C53.2456 43.0876 53.3192 43.1629 53.4016 43.2278C53.4843 43.2931 53.5619 43.3645 53.6339 43.4414C53.7045 43.5181 53.7625 43.6056 53.8057 43.7006C53.8515 43.8196 53.8608 43.9496 53.8326 44.074C53.7073 44.2219 53.5699 44.359 53.4218 44.4841C53.2704 44.6091 53.1198 44.7373 52.9699 44.8688Z" fill="#0E0E2C"/>
<path d="M61.2192 42.6509C61.2412 42.8475 61.2137 43.0464 61.1393 43.2297C61.0696 43.3861 60.9704 43.5276 60.8472 43.6465C60.7221 43.7675 60.579 43.8682 60.423 43.9453C60.2636 44.0245 60.109 44.0992 59.9591 44.1694C59.8844 44.1328 59.8202 44.0947 59.7537 44.0528C59.6822 44.0099 59.6035 43.9803 59.5214 43.9655C59.4064 43.7663 59.2959 43.5905 59.1898 43.4381C59.0811 43.2772 59.0298 43.0843 59.0441 42.8906C59.0441 42.8824 59.0509 42.8324 59.0643 42.7412C59.0777 42.6501 59.0949 42.5523 59.1173 42.4425C59.1397 42.3327 59.1569 42.2326 59.1704 42.1377C59.1838 42.0429 59.1898 41.9921 59.1898 41.9831C58.9712 42.0282 58.7579 42.096 58.5534 42.1855C58.3329 42.2804 58.1182 42.3882 57.9103 42.5082C57.7027 42.6287 57.5082 42.7472 57.3269 42.8637C57.1454 42.981 56.9976 43.0818 56.8788 43.1625C56.8683 43.2302 56.8506 43.2966 56.8258 43.3604C56.7875 43.4737 56.7434 43.5849 56.6935 43.6936C56.6438 43.8032 56.5862 43.9091 56.521 44.0103C56.459 44.1059 56.397 44.1597 56.335 44.1634C56.3448 44.1901 56.3584 44.2152 56.3754 44.2381C56.384 44.2544 56.3885 44.2726 56.3885 44.2911C56.3885 44.3096 56.384 44.3278 56.3754 44.3441C56.2584 44.3896 56.1471 44.4485 56.0437 44.5197C55.9467 44.5872 55.8445 44.6472 55.7382 44.6989C55.6298 44.7509 55.5134 44.7839 55.3939 44.7968C55.2432 44.8054 55.0927 44.7761 54.9562 44.7116C54.9563 44.686 54.9504 44.6607 54.9388 44.6379C54.9273 44.615 54.9104 44.5952 54.8897 44.5802C54.8462 44.5457 54.7997 44.5152 54.7508 44.489L54.6245 44.4233C54.5894 44.4054 54.5715 44.3875 54.5715 44.3695C54.5275 44.3837 54.5095 44.3546 54.5185 44.2829C54.5274 44.2112 54.5626 44.1895 54.6245 44.2179C54.5423 44.131 54.481 44.0266 54.4453 43.9124C54.4121 43.7942 54.3617 43.6815 54.2959 43.5778C54.3186 43.5492 54.3345 43.5157 54.3422 43.4799C54.3557 43.4344 54.3669 43.3933 54.3758 43.3574C54.3819 43.3265 54.3955 43.2975 54.4154 43.273C54.4333 43.2536 54.455 43.2559 54.4819 43.279C54.4639 43.214 54.4639 43.1454 54.4819 43.0803C54.4991 43.0251 54.517 42.975 54.5349 42.931C54.5518 42.8863 54.565 42.8403 54.5745 42.7935C54.5781 42.7685 54.5765 42.7431 54.5697 42.7187C54.5629 42.6944 54.551 42.6718 54.5349 42.6523C54.6713 42.4532 54.766 42.2287 54.8135 41.9921C54.8544 41.7858 54.8809 41.5769 54.8927 41.3669C54.9639 41.2825 55.02 41.1865 55.0585 41.083C55.1066 40.9653 55.1443 40.8436 55.1713 40.7193C55.1972 40.6052 55.2082 40.4882 55.2042 40.3712C55.2036 40.2804 55.1879 40.1903 55.1579 40.1046C55.1668 40.059 55.2154 40.0403 55.3072 40.0485C55.3639 39.7176 55.4016 39.3837 55.42 39.0484C55.4419 38.6789 55.4793 38.3256 55.5321 37.9885C55.5779 37.6761 55.6671 37.3717 55.7972 37.084C55.9144 36.8249 56.1292 36.6225 56.3948 36.5208C56.4412 36.6858 56.5106 36.8435 56.6009 36.9891C56.6841 37.1204 56.777 37.2452 56.8788 37.3626C56.9804 37.4799 57.0827 37.5986 57.1843 37.7204C57.2921 37.8508 57.3873 37.9911 57.4689 38.1394C57.4599 38.3089 57.4427 38.5054 57.4158 38.7287C57.3889 38.9521 57.3561 39.1821 57.3165 39.4159C57.2769 39.6497 57.2373 39.876 57.197 40.0926C57.1566 40.3092 57.1223 40.4945 57.0849 40.6483C57.086 40.6678 57.0942 40.6862 57.108 40.7C57.1218 40.7137 57.1402 40.722 57.1596 40.723C57.1992 40.7275 57.2059 40.7663 57.1798 40.8403C57.3919 40.7641 57.6128 40.6912 57.8423 40.6214C58.0719 40.5517 58.3019 40.477 58.5325 40.3974C58.762 40.3192 58.9861 40.2348 59.2047 40.1442C59.4145 40.058 59.6165 39.9538 59.8083 39.8327C59.8526 39.4841 59.9101 39.1331 59.9808 38.7795C60.0511 38.4292 60.0599 38.0693 60.0069 37.7159C60.0516 37.6754 60.0877 37.6264 60.113 37.5717C60.1399 37.5156 60.1876 37.4722 60.246 37.4507C60.2007 37.2803 60.1828 37.1039 60.1929 36.9279C60.201 36.7437 60.2344 36.5614 60.2923 36.3863C60.3462 36.2188 60.4316 36.0632 60.544 35.9277C60.6503 35.7994 60.7906 35.7036 60.9488 35.6514C61.0476 35.7855 61.132 35.9297 61.2005 36.0816C61.2752 36.2377 61.3439 36.3931 61.4194 36.5484C61.4913 36.6984 61.5711 36.8445 61.6584 36.9861C61.7412 37.1219 61.852 37.2385 61.9833 37.3282C62.0095 37.5822 62.0296 37.8451 62.0423 38.1177C62.055 38.3904 62.067 38.6675 62.0759 38.9491C62.0047 39.2927 61.9273 39.626 61.8436 39.9492C61.7575 40.2844 61.6976 40.6258 61.6644 40.9703C61.6015 41.0467 61.551 41.1327 61.515 41.225C61.4799 41.3168 61.4403 41.4117 61.4089 41.508C61.3744 41.6031 61.3345 41.6961 61.2894 41.7867C61.2475 41.8723 61.1939 41.9517 61.1303 42.0227C61.1654 42.1183 61.1724 42.222 61.1505 42.3215C61.1311 42.436 61.1556 42.5536 61.2192 42.6509V42.6509Z" fill="#0E0E2C"/>
<path d="M69.3466 41.9342C69.2875 42.1031 69.2099 42.265 69.115 42.4167C68.9134 42.7464 68.6331 43.021 68.2994 43.2159C68.1361 43.312 67.9562 43.3766 67.7691 43.4064C67.6883 43.4023 67.6093 43.3818 67.5368 43.3459C67.4965 43.3181 67.4543 43.2931 67.4105 43.2712C67.3844 43.2563 67.3597 43.2436 67.3358 43.2331C67.3119 43.2227 67.2933 43.2129 67.2761 43.2062L67.117 43.1577L67.1723 42.9799C67.1817 42.9531 67.1854 42.9246 67.1831 42.8963C67.1808 42.868 67.1725 42.8405 67.1588 42.8156C67.1121 42.7595 67.0587 42.7093 66.9997 42.6662L66.9198 42.596C66.8952 42.5736 66.8732 42.5485 66.8541 42.5213L66.63 42.2935L66.9878 42.162C67.2119 42.0761 67.3568 41.9798 67.4359 41.8744C67.5151 41.7691 67.5398 41.6026 67.5218 41.374C67.373 41.3558 67.2221 41.368 67.0782 41.4099C66.9587 41.4492 66.8369 41.4935 66.7129 41.5428C66.5541 41.6041 66.3927 41.6593 66.2289 41.7086C66.0534 41.7596 65.8736 41.7948 65.6919 41.8139C65.6216 41.8214 65.5552 41.8266 65.4932 41.8289C65.4312 41.8311 65.3647 41.8289 65.2945 41.8289L65.1615 41.8169C65.1436 41.7213 65.1264 41.6675 65.1085 41.6563C65.0898 41.6443 65.072 41.6309 65.0555 41.616C65.003 41.567 64.9564 41.5121 64.9165 41.4524C64.8914 41.4105 64.8755 41.3637 64.8697 41.3152C64.8639 41.2667 64.8684 41.2175 64.8829 41.1708C64.8406 41.1006 64.8136 41.0222 64.8038 40.9408C64.7514 41.0511 64.7114 41.1668 64.6842 41.2859L64.6312 41.4241L64.499 41.4651C64.4778 41.4806 64.4634 41.5036 64.4587 41.5294C64.4512 41.5536 64.4469 41.5787 64.446 41.6041L64.3795 41.8371C64.3616 41.8565 64.3436 41.8737 64.3265 41.8894C64.3073 41.9053 64.2896 41.9228 64.2734 41.9417C64.2555 42.0231 64.2339 42.1045 64.207 42.1874C64.1801 42.2703 64.1539 42.348 64.127 42.4212C64.083 42.5415 64.0456 42.658 64.015 42.7723C63.9844 42.8787 63.973 42.9897 63.9814 43.1002L63.9283 43.2495C63.8864 43.3045 63.836 43.3524 63.779 43.3915C63.7257 43.4283 63.6726 43.4627 63.6199 43.4945C63.5985 43.5172 63.5732 43.5356 63.5452 43.5491L63.4705 43.5901L63.4302 43.7395L63.2711 43.7836C63.174 43.812 63.1052 43.8329 63.0656 43.8463C63.0204 43.8603 62.9739 43.8699 62.9267 43.8747H62.7938C62.6967 43.806 62.6212 43.75 62.5697 43.7067C62.512 43.6611 62.4499 43.6214 62.3844 43.5879C62.3235 43.5244 62.278 43.4477 62.2515 43.3638C62.2433 43.3115 62.2343 43.2645 62.2254 43.2212C62.2102 43.1792 62.1989 43.136 62.1917 43.0919C62.1905 43.0638 62.1788 43.0372 62.1589 43.0173L61.9863 42.8768L62.1357 42.7416L62.1484 42.5176C62.3252 42.047 62.5132 41.5931 62.7124 41.1559C62.9115 40.7187 63.1169 40.2718 63.3286 39.8152C63.4033 39.6658 63.4682 39.5164 63.534 39.367C63.5997 39.2176 63.6692 39.0682 63.7401 38.9188C63.7305 38.8892 63.726 38.8581 63.7267 38.827C63.7282 38.7852 63.7371 38.744 63.7528 38.7052C63.8507 38.5439 63.9298 38.4005 63.9918 38.2742C64.0538 38.148 64.1158 38.0203 64.1778 37.8896C64.248 37.7312 64.3212 37.5774 64.3959 37.428C64.4793 37.2647 64.5746 37.108 64.6813 36.9589L64.8934 36.8431L64.986 36.7998C65.0237 36.782 65.0641 36.7706 65.1055 36.7662L65.3042 36.7714C65.5537 36.6282 65.7743 36.4397 65.9548 36.2157C66.1616 35.9573 66.3519 35.6861 66.5247 35.4038L66.6569 35.2036L66.8294 35.291C66.8886 35.3173 66.9512 35.3349 67.0154 35.3433C67.0946 35.3567 67.179 35.3724 67.2671 35.3889C67.426 35.4068 67.5754 35.4302 67.7153 35.4591C67.8424 35.4808 67.9613 35.5363 68.0596 35.6197C68.1023 35.7186 68.1333 35.8221 68.1522 35.9281C68.1613 35.9981 68.1748 36.0675 68.1926 36.1358C68.2187 36.2852 68.2434 36.4308 68.2673 36.5787C68.2914 36.7441 68.3071 36.9107 68.3143 37.0777C68.3584 37.2233 68.3957 37.3667 68.4264 37.5094C68.457 37.6521 68.4861 37.797 68.513 37.9441C68.5571 38.1517 68.6012 38.3519 68.6452 38.5461C68.6857 38.734 68.7427 38.918 68.8155 39.0959C68.8595 39.0884 68.9045 39.0884 68.9485 39.0959C68.993 39.0734 69.0395 39.0552 69.0874 39.0413C69.1372 39.0274 69.1925 39.0125 69.2532 38.9965L69.4026 38.9674L69.4556 39.0936C69.4646 39.1377 69.5087 39.1765 69.5886 39.2124C69.6751 39.203 69.7624 39.2186 69.8403 39.2572C69.8928 39.29 69.9427 39.3267 69.9897 39.367C70.0206 39.3959 70.0566 39.419 70.0958 39.435L70.2952 39.4932L70.1891 39.7031C70.0891 39.8876 69.9617 40.0558 69.8112 40.2021C69.6467 40.367 69.4617 40.5101 69.2607 40.6278C69.2697 40.6794 69.2764 40.7302 69.2809 40.7772C69.2852 40.8282 69.2963 40.8784 69.3137 40.9266C69.3406 41.076 69.3623 41.2254 69.3802 41.3837C69.3974 41.5468 69.3974 41.7113 69.3802 41.8744L69.3466 41.9342ZM65.5148 40.0602C65.7798 40.0138 66.0205 39.9675 66.2371 39.9212C66.4537 39.8749 66.6947 39.8109 66.9601 39.7293C66.8979 39.4708 66.8314 39.2019 66.7607 38.9226C66.69 38.6432 66.6153 38.3664 66.5366 38.092L66.4567 38.2332C66.2721 38.4481 66.1017 38.6749 65.9466 38.9121C65.7822 39.1611 65.6428 39.3931 65.5283 39.6083L65.3692 39.8637C65.3161 39.9496 65.2676 40.034 65.2235 40.1192C65.2724 40.1049 65.3224 40.0947 65.3729 40.0885C65.4211 40.0826 65.4686 40.0721 65.5148 40.0572V40.0602Z" fill="#0E0E2C"/>
<path d="M77.0913 35.8173C76.8505 35.8448 76.6116 35.8864 76.3757 35.942C76.1188 36.0013 75.8668 36.0621 75.6198 36.1243C75.4431 36.1706 75.2728 36.2114 75.1089 36.2468C74.9451 36.2821 74.7957 36.3118 74.6608 36.3357C74.5988 36.5366 74.5375 36.7159 74.4755 36.8727C74.4136 37.0296 74.3471 37.1834 74.2769 37.3321C74.2066 37.4807 74.1417 37.6503 74.0842 37.8109C74.0266 37.9715 73.9714 38.144 73.9183 38.3262C73.8302 38.4756 73.7572 38.6141 73.6995 38.7415C73.6389 38.8764 73.5924 39.017 73.5606 39.1613C73.4592 39.2965 73.3786 39.446 73.3215 39.605C73.2687 39.7544 73.2292 39.8848 73.2028 39.9964L73.1497 40.1615C73.1097 40.1999 73.0779 40.2462 73.0564 40.2974C73.0441 40.3343 73.0213 40.3668 72.9906 40.3908C72.979 40.4954 72.9473 40.5968 72.8973 40.6895C72.8807 40.732 72.8675 40.7757 72.8577 40.8202C72.8505 40.8489 72.846 40.8782 72.8443 40.9076C72.8487 40.9408 72.8449 40.9745 72.8333 41.0059C72.8217 41.0373 72.8027 41.0653 72.7778 41.0877C72.7867 41.1335 72.7867 41.1807 72.7778 41.2266C72.7696 41.2766 72.7606 41.3237 72.7516 41.3685C72.7271 41.4513 72.718 41.5379 72.7247 41.6239C72.7516 41.6561 72.7755 41.6844 72.7994 41.7084C72.8237 41.7371 72.8397 41.772 72.8457 41.8092C72.8831 41.8321 72.9233 41.8502 72.9653 41.863C73.0157 41.893 73.069 41.918 73.1243 41.9377L73.2439 42.0579C73.2882 42.3069 73.2483 42.5145 73.1243 42.6809C72.9924 42.8631 72.7683 42.9717 72.4521 43.0065L72.293 43.0244C72.259 42.9986 72.2316 42.9651 72.2131 42.9266L72.0406 42.8795C71.9913 42.8628 71.9492 42.8299 71.921 42.7862C71.806 42.7458 71.7134 42.7115 71.6432 42.6846L71.5237 42.6316V42.4717C71.4612 42.3986 71.414 42.3138 71.3847 42.2222C71.353 42.1296 71.3281 42.0347 71.3101 41.9384C71.2921 41.8637 71.272 41.789 71.2503 41.7196C71.2306 41.6568 71.2017 41.5974 71.1644 41.5433C71.1398 41.0995 71.1903 40.6549 71.3138 40.2279C71.4288 39.8619 71.5481 39.5084 71.6716 39.1673C71.7463 38.9828 71.8127 38.7938 71.8837 38.6071C71.9555 38.4157 72.0176 38.2207 72.0697 38.023L72.1892 37.8773C72.2504 37.728 72.302 37.6062 72.3386 37.5091C72.3752 37.412 72.42 37.3127 72.4641 37.2103C72.4909 37.1461 72.5148 37.0834 72.5387 37.0236C72.5627 36.9638 72.5806 36.9108 72.5985 36.8645C72.5457 36.8705 72.4972 36.878 72.4529 36.8869C72.408 36.8966 72.364 36.9078 72.3199 36.9213C72.2758 36.9347 72.2183 36.9482 72.1705 36.9571C72.1227 36.9661 72.0816 36.9736 72.0376 36.9788C71.9937 36.9853 71.9492 36.9853 71.9054 36.9788C71.8074 37.0341 71.6991 37.0687 71.5872 37.0804L71.4542 37.0946C71.4294 37.0973 71.4043 37.0973 71.3795 37.0946C71.3596 37.0931 71.3397 37.0931 71.3198 37.0946C71.245 37.0999 71.1724 37.1216 71.1069 37.158L70.8021 37.1909L70.6699 37.2059C70.6475 37.2086 70.6252 37.2131 70.6035 37.2193C70.5817 37.2256 70.5595 37.2304 70.537 37.2335C70.4709 37.2395 70.4044 37.2395 70.3383 37.2335C70.2606 37.2256 70.1849 37.2046 70.1142 37.1715C70.0081 37.0423 69.9372 36.9743 69.9021 36.9698L69.7826 36.8204C69.7739 36.7696 69.7606 36.7196 69.743 36.6711C69.7251 36.6247 69.7079 36.571 69.69 36.5112C69.6541 36.4268 69.6212 36.3349 69.5906 36.2371C69.5569 36.1201 69.5413 35.9987 69.5443 35.8771C69.5483 35.8185 69.5665 35.7619 69.5973 35.712C69.6235 35.6739 69.6459 35.6373 69.6631 35.6119L69.7034 35.4087L69.8752 35.4035L70.2487 35.3624C70.531 35.3316 70.8181 35.289 71.1099 35.2347C71.4017 35.1804 71.7024 35.1232 72.0122 35.0629L72.5492 34.9509L73.1124 34.8358C73.1475 34.7529 73.1871 34.6738 73.2185 34.5991L73.3514 34.5184C73.5103 34.492 73.623 34.4995 73.6898 34.5408C73.7482 34.5766 73.8037 34.617 73.8556 34.6618C74.0498 34.623 74.2465 34.5814 74.4457 34.5371C74.6448 34.4928 74.8458 34.443 75.0484 34.3877C75.3472 34.311 75.65 34.238 75.9567 34.1688C76.2477 34.1024 76.5422 34.0525 76.8388 34.0194C76.9628 34.0053 77.0816 33.997 77.1966 33.9933C77.3027 33.9894 77.4089 33.9909 77.5148 33.9978L77.6478 34.0762C77.6756 34.1282 77.714 34.1737 77.7605 34.2099C77.8091 34.2488 77.8599 34.2846 77.9099 34.3257C78.0246 34.4198 78.131 34.5235 78.2281 34.6357C78.3342 34.7567 78.374 34.9469 78.3476 35.2063C78.3074 35.2829 78.2535 35.3515 78.1885 35.4087L78.069 35.5813H77.9368C77.8855 35.5858 77.8352 35.5979 77.7874 35.6171C77.7431 35.6351 77.699 35.6552 77.6552 35.6776C77.6194 35.6993 77.5805 35.7187 77.5492 35.7359C77.5106 35.7543 77.4706 35.7698 77.4297 35.7822C77.3497 35.7912 77.2855 35.7956 77.2369 35.7964C77.1884 35.7971 77.1443 35.8098 77.0913 35.8173Z" fill="#0E0E2C"/>
<path d="M10.6409 58.1235C10.6024 58.1358 10.567 58.1563 10.5372 58.1836C10.5074 58.211 10.4839 58.2445 10.4684 58.2818C10.4333 58.361 10.3997 58.4417 10.369 58.5246C10.3384 58.6075 10.307 58.6844 10.2764 58.7539C10.2659 58.784 10.2473 58.8107 10.2227 58.831C10.1981 58.8513 10.1683 58.8644 10.1367 58.8689C10.128 58.9385 10.1024 59.005 10.062 59.0624C10.0217 59.1199 9.98735 59.1789 9.94926 59.2401C9.91402 59.301 9.88714 59.3663 9.86934 59.4343C9.85231 59.5116 9.86178 59.5924 9.89622 59.6637C9.82492 59.7256 9.77782 59.8108 9.76327 59.9042C9.74534 60.0035 9.72593 60.0984 9.70352 60.1887C9.68366 60.2754 9.64518 60.3567 9.59073 60.427C9.5377 60.4942 9.44134 60.5316 9.29943 60.5383C9.27254 60.5764 9.26806 60.5996 9.28598 60.6063C9.30391 60.613 9.31661 60.6421 9.32557 60.6944C9.2497 60.6827 9.17213 60.6983 9.10672 60.7385C9.05322 60.7768 8.99248 60.8037 8.9282 60.8177C8.76739 60.7873 8.62069 60.7058 8.50992 60.5854C8.3963 60.4604 8.29846 60.3219 8.21862 60.1731C8.13553 60.0196 8.06073 59.8617 7.99454 59.7003C7.92806 59.5397 7.86457 59.4015 7.80258 59.2835C7.82854 59.1903 7.83289 59.0925 7.81528 58.9974C7.80283 58.9163 7.77106 58.8395 7.72266 58.7733C8.15588 57.8058 8.62893 56.7725 9.14182 55.6735C9.65472 54.5746 10.141 53.4913 10.6006 52.4236C10.805 52.4816 11.0062 52.5504 11.2034 52.6298C11.3952 52.7058 11.5776 52.8035 11.7471 52.9211C11.9086 53.0336 12.0498 53.1728 12.1647 53.3327C12.2809 53.4969 12.3576 53.6858 12.3887 53.8846C12.3708 53.9399 12.3514 53.9593 12.329 53.9511C12.3066 53.9429 12.2872 53.9511 12.27 53.978C12.2948 54.0027 12.3148 54.0318 12.329 54.0639C12.3335 54.0813 12.3335 54.0995 12.329 54.1169C12.3242 54.1415 12.3222 54.1666 12.323 54.1916C12.3266 54.2347 12.3401 54.2764 12.3626 54.3134C12.3267 54.3081 12.3028 54.3134 12.2879 54.3343C12.273 54.3552 12.2461 54.3567 12.202 54.344C12.2348 54.4175 12.2461 54.4988 12.2349 54.5785C12.2229 54.6385 12.2028 54.6966 12.1751 54.7511C12.148 54.8044 12.126 54.8602 12.1094 54.9176C12.0919 54.9898 12.0964 55.0654 12.1221 55.135C12.0996 55.136 12.0783 55.1454 12.0623 55.1611C12.0504 55.1748 12.0394 55.1893 12.0295 55.2045C12.0197 55.2198 12.0087 55.2343 11.9966 55.2478C11.9889 55.2554 11.9792 55.2608 11.9687 55.2631C11.9581 55.2655 11.9471 55.2648 11.9368 55.2612C11.9631 55.4535 11.9719 55.6478 11.963 55.8416C11.954 56.0373 11.9475 56.2347 11.9436 56.4339C11.9396 56.6331 11.9416 56.8407 11.9495 57.0569C11.9596 57.2792 11.9908 57.5 12.0429 57.7164C12.3505 57.5063 12.6104 57.2337 12.8055 56.9164C13.0005 56.592 13.1562 56.2454 13.2694 55.8842C13.3921 55.4938 13.483 55.0941 13.5412 54.6891C13.6035 54.2673 13.6697 53.8356 13.7399 53.3939C13.8214 53.3027 13.8845 53.1967 13.9259 53.0817C13.9702 52.9622 14.0101 52.8377 14.0454 52.7082C14.0808 52.5788 14.1161 52.4465 14.1515 52.3116C14.1862 52.1849 14.2325 52.0616 14.2897 51.9434C14.4083 51.9431 14.5249 51.9737 14.628 52.0322C14.7185 52.0872 14.8049 52.1486 14.8865 52.216C14.9662 52.283 15.0503 52.3446 15.1382 52.4005C15.2383 52.4605 15.3531 52.4916 15.4698 52.4901C15.5759 52.629 15.6732 52.7642 15.7619 52.8957C15.8495 53.0259 15.9081 53.1734 15.9337 53.3282C15.8887 53.4061 15.8552 53.4901 15.8343 53.5776C15.8127 53.6688 15.788 53.7592 15.7596 53.851C15.7337 53.9403 15.6981 54.0264 15.6536 54.108C15.6068 54.1907 15.5435 54.2629 15.4676 54.3201C15.4414 54.5531 15.4078 54.7683 15.3682 54.961C15.3287 55.1537 15.2891 55.3479 15.2487 55.5376C15.2084 55.7273 15.174 55.9238 15.1494 56.1254C15.1222 56.3442 15.1132 56.5648 15.1225 56.785C15.0523 56.9964 14.9768 57.2204 14.8984 57.4572C14.82 57.694 14.7565 57.9099 14.7124 58.1011C14.574 58.2276 14.4613 58.3798 14.3808 58.5492C14.3016 58.7165 14.2172 58.8854 14.1291 59.0542C14.094 59.093 14.0716 59.105 14.0626 59.0878C14.0536 59.0706 14.023 59.0609 13.97 59.0579C13.9792 59.0837 13.9792 59.112 13.97 59.1378C13.9612 59.1558 13.9502 59.1727 13.9371 59.1879C13.9221 59.2056 13.9127 59.2275 13.9102 59.2506C13.9073 59.2864 13.9143 59.3223 13.9304 59.3544C13.8055 59.4217 13.6933 59.5102 13.5988 59.6158C13.5022 59.7227 13.3981 59.8226 13.2873 59.9146C13.1702 60.0094 13.0346 60.0786 12.8892 60.1178C12.7346 60.1611 12.5329 60.1521 12.2857 60.0909C11.9277 59.869 11.6038 59.5963 11.3244 59.2812C11.0288 58.9395 10.7973 58.5473 10.6409 58.1235V58.1235Z" fill="white"/>
<path d="M23.3178 55.1683C23.3083 55.2699 23.3174 55.3724 23.3446 55.4708C23.3706 55.5646 23.4038 55.6563 23.444 55.7449C23.4836 55.8331 23.5187 55.9242 23.5568 56.0175C23.5914 56.1094 23.6179 56.2041 23.6359 56.3006C23.6539 56.4347 23.6539 56.5706 23.6359 56.7047C23.6182 56.8521 23.5872 56.9976 23.5433 57.1394C23.5012 57.2759 23.4433 57.407 23.3708 57.5301C23.3087 57.6389 23.2226 57.7321 23.1191 57.8027C22.9997 57.9717 22.8472 58.1148 22.6709 58.2232C22.4952 58.331 22.3308 58.4561 22.1802 58.5967C22.0819 58.6704 21.9721 58.7274 21.8553 58.7655L21.4908 58.885C21.3937 58.9483 21.2786 59.016 21.1457 59.0882C21.0135 59.1629 20.876 59.2286 20.7349 59.2928C20.5979 59.3544 20.456 59.4044 20.3106 59.4422C20.189 59.4772 20.0636 59.4975 19.9372 59.5027C19.6892 59.6229 19.429 59.716 19.1611 59.7806C18.8713 59.8409 18.5735 59.8532 18.2797 59.8172C17.9924 59.8946 17.6926 59.9142 17.3976 59.8747C17.1433 59.8389 16.8994 59.7504 16.6813 59.6148C16.4723 59.4824 16.2884 59.3139 16.1383 59.1173C15.9848 58.9208 15.8578 58.7051 15.7603 58.4757C15.6879 58.0173 15.706 57.5491 15.8134 57.0976C15.9162 56.6834 16.0697 56.2836 16.2705 55.907C16.4667 55.539 16.6952 55.189 16.9532 54.8613C17.2101 54.5371 17.4591 54.2204 17.7001 53.9112C17.7211 53.918 17.7435 53.9197 17.7653 53.9162C17.7871 53.9127 17.8078 53.9041 17.8256 53.891C17.8599 53.8619 17.8891 53.8273 17.9122 53.7887C17.9382 53.7461 17.9669 53.7052 17.9981 53.6662C18.0271 53.6303 18.0665 53.6042 18.1109 53.5915C18.1679 53.458 18.2623 53.3439 18.3828 53.2629C18.5028 53.183 18.6009 53.0744 18.6681 52.9469C18.7396 52.9246 18.8068 52.8902 18.8668 52.8453C18.9196 52.8034 18.9695 52.758 19.0162 52.7094C19.0648 52.6601 19.1155 52.6123 19.1656 52.5667C19.2205 52.52 19.2835 52.4838 19.3516 52.4599V52.3173C19.4871 52.2482 19.6067 52.1515 19.7026 52.0334C19.7773 51.9326 19.8684 51.8093 19.9745 51.6652C20.0544 51.648 20.1179 51.6361 20.1672 51.6308C20.2411 51.62 20.3141 51.6033 20.3853 51.5808C20.4396 51.4751 20.5041 51.375 20.578 51.282C20.6549 51.1961 20.7416 51.1197 20.8365 51.0542C20.9489 51.0971 21.0679 51.1201 21.1883 51.1222C21.3135 51.1247 21.4335 51.1728 21.5259 51.2574C21.5301 51.3297 21.5597 51.3982 21.6095 51.4508C21.6536 51.4949 21.7025 51.534 21.7552 51.5673C21.8085 51.6017 21.8583 51.6383 21.9046 51.6771C21.9569 51.7222 21.992 51.7839 22.0039 51.8519C22.0398 51.8564 22.0637 51.8519 22.0786 51.8303C22.0876 51.8198 22.0995 51.8123 22.1128 51.8086C22.1261 51.8048 22.1402 51.8051 22.1533 51.8093C22.1643 51.894 22.1961 51.9746 22.2459 52.0439C22.2965 52.1103 22.3327 52.1867 22.352 52.268C22.3086 52.3582 22.2753 52.4528 22.2526 52.5503C22.2419 52.5971 22.2217 52.6411 22.1931 52.6797C22.1646 52.7182 22.1284 52.7505 22.0868 52.7744C22.0779 52.8371 22.0958 52.8685 22.1398 52.8677C22.1587 52.8664 22.1774 52.8723 22.1921 52.8843C22.2068 52.8962 22.2164 52.9132 22.219 52.932C22.2251 52.9626 22.2248 52.9942 22.2179 53.0247C22.2111 53.0552 22.198 53.0839 22.1794 53.109C22.3959 53.4377 22.5867 53.7825 22.7501 54.1405C22.9125 54.4972 23.1023 54.8408 23.3178 55.1683ZM21.6603 56.6099C21.6908 56.5175 21.7379 56.4314 21.7993 56.3559C21.8622 56.2725 21.897 56.1713 21.8986 56.0668C21.8635 56.0194 21.8368 55.9664 21.8194 55.91C21.8085 55.8469 21.804 55.7828 21.806 55.7188C21.6092 55.462 21.4402 55.1851 21.3018 54.8927C21.166 54.6033 21.0063 54.3257 20.8245 54.0628C20.8015 54.1073 20.7701 54.1469 20.7319 54.1794C20.6878 54.2197 20.6393 54.216 20.5825 54.1689C20.5704 54.232 20.5375 54.2893 20.4891 54.3317C20.4484 54.3664 20.397 54.386 20.3435 54.387C20.2874 54.3884 20.2315 54.3811 20.1777 54.3653C20.1243 54.3508 20.0738 54.3273 20.0283 54.2959C19.7718 54.5274 19.5154 54.7545 19.259 54.9771C19.0015 55.201 18.7702 55.4533 18.5695 55.7292C18.5344 55.7509 18.512 55.7599 18.5038 55.7561C18.4751 55.7589 18.4476 55.7689 18.4239 55.7853C18.3557 55.956 18.269 56.1188 18.1654 56.2708C18.0639 56.4201 17.9638 56.5695 17.8667 56.7189C17.7696 56.8712 17.6854 57.0314 17.615 57.1977C17.5411 57.3789 17.5006 57.572 17.4955 57.7676C17.6508 57.8766 17.836 57.935 18.0258 57.9349C18.2373 57.9384 18.4486 57.9196 18.6562 57.8789C18.8714 57.8389 19.0843 57.7876 19.2941 57.725C19.4821 57.6666 19.6751 57.6256 19.8707 57.6025C20.2064 57.4903 20.5271 57.337 20.8253 57.1462C21.0897 56.9714 21.368 56.7926 21.6603 56.6099V56.6099Z" fill="white"/>
<path d="M31.5922 58.4114C31.2954 58.3133 31.0377 58.1231 30.8565 57.8683C30.6616 57.5933 30.4823 57.3075 30.3195 57.0124L30.2395 56.863C30.2134 56.8129 30.1865 56.7674 30.1604 56.7255L29.9751 56.4006L29.8683 56.2012L29.7092 56.364L29.471 56.6023L29.338 56.7517C29.1079 56.9892 28.8759 57.2247 28.6419 57.4583C28.4104 57.6891 28.1623 57.9026 27.8994 58.0969C27.6426 58.2866 27.3673 58.45 27.0778 58.5846C26.7815 58.7202 26.4665 58.8106 26.1434 58.8528L25.8513 58.7393C25.6833 58.6691 25.5414 58.6056 25.4271 58.5473C25.2829 58.4682 25.1491 58.3713 25.029 58.259C24.9849 58.1843 24.9475 58.1096 24.9162 58.0461C24.8848 57.9826 24.8519 57.9117 24.8168 57.8444C24.7298 57.6992 24.6503 57.5496 24.5786 57.3963C24.5163 57.2618 24.4543 57.1097 24.3926 56.9399C24.4187 56.8129 24.4591 56.5986 24.5121 56.2968C24.5651 55.995 24.6294 55.6627 24.704 55.3011C24.7787 54.9396 24.8587 54.5744 24.9431 54.2069C25.0275 53.8394 25.1126 53.519 25.2015 53.2441C25.2812 53.0051 25.3718 52.7521 25.4734 52.4852C25.5692 52.23 25.68 51.9806 25.805 51.7383C25.9139 51.5259 26.0448 51.3256 26.1957 51.1407C26.3088 50.9905 26.4652 50.8784 26.6438 50.8196C26.682 50.8714 26.7337 50.9117 26.7932 50.9361C26.8462 50.957 26.8948 50.9734 26.9426 50.9861C27.0517 51.1336 27.1737 51.2711 27.3071 51.3969C27.4373 51.5165 27.5769 51.6254 27.7246 51.7226C27.6808 51.9482 27.6168 52.2006 27.5327 52.48C27.4485 52.7593 27.3601 53.0384 27.2675 53.3173C27.1744 53.5976 27.0838 53.8715 26.9956 54.1389C26.9075 54.4063 26.8368 54.6349 26.7835 54.8246C26.7269 54.9942 26.6824 55.1677 26.6505 55.3437C26.5524 55.7942 26.4776 56.2494 26.4265 56.7076C26.5526 56.6575 26.6693 56.5863 26.7715 56.497C26.8945 56.3974 27.0138 56.2916 27.1293 56.1795C27.2623 56.0585 27.3945 55.9248 27.5274 55.7777C27.6948 55.5915 27.8362 55.4214 27.9517 55.2675C28.0672 55.1137 28.1755 54.9558 28.2766 54.794C28.3762 54.6326 28.48 54.4554 28.5881 54.2622C28.6961 54.069 28.8244 53.8406 28.9728 53.5772C29.1047 53.3502 29.2439 53.1072 29.3903 52.8482C29.5367 52.5893 29.6818 52.3358 29.8257 52.0878C29.9712 51.8468 30.1148 51.6255 30.2567 51.4238C30.3726 51.2544 30.5011 51.0941 30.6414 50.9443C30.7199 51.0326 30.8116 51.1081 30.9133 51.1684C31.0218 51.2362 31.1402 51.2866 31.2643 51.3178C31.3174 51.3925 31.3682 51.4589 31.4137 51.5202C31.4593 51.5814 31.5086 51.6352 31.5534 51.6838C31.6067 51.758 31.6565 51.8274 31.7028 51.8922C31.7491 51.9569 31.7954 52.0226 31.8417 52.0893C31.8328 52.1521 31.8201 52.2335 31.8021 52.3321C31.7842 52.4307 31.7648 52.5397 31.7424 52.657C31.72 52.7743 31.6961 52.8945 31.6677 53.0163C31.6393 53.138 31.6147 53.2546 31.5878 53.3636C31.5171 53.7072 31.464 53.9649 31.4287 54.1367C31.3933 54.3085 31.3684 54.4437 31.354 54.5423C31.3413 54.6416 31.3323 54.7238 31.3278 54.791C31.3233 54.8582 31.3211 54.9486 31.3211 55.0636C31.3121 55.1517 31.3166 55.2406 31.3346 55.3273C31.3439 55.4108 31.3617 55.4931 31.3876 55.573C31.4115 55.6526 31.4472 55.7282 31.4936 55.7971L32.024 55.328C32.1911 55.1762 32.3362 55.0017 32.4549 54.8097C32.6036 54.5744 32.7366 54.3296 32.8531 54.0769C32.981 53.8021 33.107 53.5033 33.231 53.1806C33.355 52.8579 33.4795 52.5305 33.6045 52.1984C33.7897 51.7099 33.9774 51.2341 34.1677 50.771C34.3142 50.3928 34.4986 50.0305 34.7181 49.6895C34.897 49.7821 35.0677 49.8898 35.2283 50.0114C35.3703 50.1185 35.4974 50.2441 35.6062 50.3848C35.7176 50.5331 35.8051 50.698 35.8654 50.8733C35.9376 51.0913 35.9842 51.3169 36.0044 51.5456C35.8455 51.8727 35.6929 52.2076 35.5465 52.5502C35.4001 52.8928 35.2609 53.2351 35.129 53.5772C34.9517 54.0209 34.7682 54.4653 34.5785 54.9105C34.3921 55.3491 34.1819 55.7773 33.9488 56.193C33.7266 56.596 33.4718 56.9802 33.1869 57.3418C32.9053 57.6943 32.5751 58.0051 32.2062 58.265C32.123 58.2494 32.0381 58.2452 31.9538 58.2523C31.8189 58.2637 31.6917 58.3197 31.5922 58.4114V58.4114Z" fill="white"/>
<path d="M38.0501 55.1167C38.0116 55.129 37.9762 55.1495 37.9464 55.1768C37.9166 55.2042 37.8931 55.2377 37.8776 55.275C37.8424 55.3542 37.8088 55.4349 37.7782 55.5178C37.7476 55.6007 37.7162 55.6769 37.6856 55.7471C37.6752 55.7772 37.6566 55.8039 37.632 55.824C37.6073 55.8442 37.5775 55.8571 37.5459 55.8614C37.5373 55.9312 37.5117 55.9979 37.4712 56.0556C37.4309 56.1131 37.3965 56.1721 37.3584 56.2333C37.3231 56.2941 37.2962 56.3595 37.2785 56.4275C37.2615 56.5048 37.271 56.5856 37.3054 56.6568C37.2343 56.7186 37.1872 56.8035 37.1725 56.8966C37.1545 56.996 37.1351 57.0916 37.1127 57.1819C37.093 57.2684 37.0545 57.3495 36.9999 57.4195C36.9476 57.4874 36.8505 57.5248 36.7086 57.5315C36.6817 57.5698 36.6772 57.5923 36.6952 57.5987C36.7131 57.6062 36.7265 57.6353 36.7348 57.6876C36.6589 57.6759 36.5813 57.6915 36.5159 57.7317C36.4624 57.7699 36.4017 57.7969 36.3374 57.8109C36.1767 57.7803 36.0302 57.6986 35.9199 57.5778C35.8058 57.4533 35.7076 57.3151 35.6278 57.1663C35.5447 57.0128 35.4699 56.8549 35.4037 56.6934C35.3372 56.5329 35.2738 56.3947 35.2118 56.2767C35.2377 56.1835 35.2421 56.0857 35.2245 55.9906C35.2123 55.9094 35.1805 55.8325 35.1318 55.7665C35.5651 54.799 36.0381 53.7657 36.551 52.6667C37.0639 51.5677 37.5502 50.4844 38.0098 49.4168C38.2144 49.4749 38.4159 49.5437 38.6133 49.623C38.8048 49.6991 38.987 49.7968 39.1563 49.9143C39.3179 50.027 39.4593 50.1661 39.5746 50.3259C39.6906 50.4903 39.7672 50.6791 39.7987 50.8778C39.7815 50.9331 39.7613 50.9525 39.7397 50.9443C39.718 50.9361 39.6971 50.9443 39.6799 50.9705C39.7045 50.9958 39.7247 51.0251 39.7397 51.0571C39.7434 51.0746 39.7434 51.0927 39.7397 51.1101C39.7341 51.1346 39.7318 51.1597 39.7329 51.1848C39.7364 51.2277 39.75 51.2692 39.7725 51.3058C39.7367 51.3013 39.7128 51.3058 39.6978 51.3275C39.6829 51.3491 39.656 51.3499 39.6119 51.3372C39.6447 51.4107 39.6561 51.492 39.6448 51.5717C39.6332 51.6318 39.613 51.6899 39.585 51.7443C39.5579 51.7976 39.5359 51.8534 39.5193 51.9108C39.5019 51.9829 39.5063 52.0586 39.532 52.1282C39.5097 52.1287 39.4884 52.1382 39.473 52.1543C39.4606 52.1678 39.4494 52.1823 39.4394 52.1977C39.4296 52.213 39.4186 52.2275 39.4065 52.241C39.3988 52.2486 39.3892 52.2539 39.3786 52.2563C39.368 52.2587 39.357 52.258 39.3468 52.2544C39.373 52.4467 39.3818 52.6409 39.3729 52.8348C39.3639 53.0305 39.358 53.2277 39.3535 53.4271C39.349 53.6265 39.3535 53.8342 39.3602 54.0501C39.3696 54.2721 39.4006 54.4928 39.4528 54.7088C39.7606 54.4992 40.0205 54.2269 40.2154 53.9096C40.4105 53.5852 40.5662 53.2386 40.6793 52.8774C40.8021 52.487 40.893 52.0873 40.9512 51.6823C41.0134 51.2595 41.0796 50.8278 41.1499 50.3871C41.2313 50.2959 41.2944 50.1899 41.3358 50.0749C41.3799 49.9554 41.4195 49.8291 41.4554 49.6977C41.4912 49.5662 41.5256 49.4333 41.5614 49.3011C41.5942 49.1753 41.6385 49.0528 41.6936 48.9351C41.8122 48.9347 41.9289 48.9653 42.032 49.0239C42.1226 49.0787 42.2089 49.1401 42.2904 49.2077C42.3705 49.2743 42.4546 49.3359 42.5421 49.3922C42.6423 49.4521 42.7571 49.4831 42.8738 49.4818C42.9798 49.6207 43.0772 49.7559 43.1658 49.8874C43.2532 50.0175 43.312 50.1646 43.3384 50.3191C43.2929 50.3972 43.2592 50.4815 43.2383 50.5693C43.2166 50.6597 43.192 50.7509 43.1636 50.842C43.1379 50.9313 43.1023 51.0175 43.0575 51.0989C43.0108 51.1819 42.9475 51.2543 42.8715 51.3118C42.8454 51.5448 42.8118 51.76 42.7722 51.9527C42.7326 52.1454 42.693 52.3396 42.6527 52.5293C42.6123 52.719 42.578 52.9155 42.5533 53.1171C42.5264 53.3359 42.5176 53.5565 42.5272 53.7767C42.4525 53.9881 42.3778 54.2121 42.3031 54.4489C42.2284 54.6857 42.1612 54.9016 42.1171 55.092C41.979 55.2189 41.8664 55.371 41.7855 55.5402C41.7063 55.7082 41.6219 55.877 41.5338 56.0459C41.4987 56.0847 41.4763 56.0959 41.4673 56.0795C41.4583 56.063 41.4277 56.0526 41.3747 56.0496C41.3839 56.0754 41.3839 56.1037 41.3747 56.1295C41.3659 56.1475 41.3549 56.1644 41.3418 56.1796C41.3269 56.1971 41.3176 56.2187 41.3149 56.2415C41.3119 56.2776 41.3189 56.3138 41.3351 56.3461C41.2102 56.4134 41.098 56.5019 41.0035 56.6075C40.9071 56.7146 40.803 56.8145 40.692 56.9063C40.5751 57.0012 40.4394 57.0702 40.2939 57.1087C40.139 57.1531 39.9378 57.1443 39.6904 57.0826C39.3339 56.8614 39.0113 56.5896 38.7328 56.2759C38.4378 55.9334 38.2066 55.5408 38.0501 55.1167V55.1167Z" fill="white"/>
<path d="M50.727 52.1605C50.7175 52.2622 50.7266 52.3647 50.7539 52.463C50.7802 52.5567 50.8134 52.6484 50.8532 52.7372C50.8928 52.8253 50.9279 52.9164 50.966 53.0098C51.0006 53.1017 51.0271 53.1964 51.0452 53.2929C51.0632 53.427 51.0632 53.5629 51.0452 53.697C51.0275 53.8444 50.9965 53.9899 50.9526 54.1317C50.9109 54.2681 50.853 54.399 50.78 54.5216C50.7181 54.6307 50.632 54.7242 50.5283 54.7949C50.4089 54.964 50.2564 55.107 50.0802 55.2155C49.9046 55.3234 49.7402 55.4485 49.5894 55.5889C49.4912 55.6627 49.3814 55.7195 49.2645 55.757C49.1457 55.7973 49.024 55.8369 48.9 55.8772C48.8004 55.9405 48.6856 56.0082 48.5557 56.0804C48.4257 56.1526 48.2885 56.2208 48.1441 56.2851C48.0071 56.3467 47.8652 56.3966 47.7198 56.4345C47.5981 56.4688 47.4728 56.4891 47.3464 56.495C47.0984 56.6151 46.8382 56.7083 46.5703 56.7728C46.2804 56.8328 45.9828 56.8451 45.6889 56.8094C45.4016 56.8866 45.1017 56.9059 44.8068 56.8662C44.5527 56.831 44.3089 56.7427 44.0912 56.607C43.882 56.4746 43.6979 56.3062 43.5475 56.1095C43.3943 55.9129 43.2673 55.6972 43.1695 55.4679C43.0971 55.0095 43.1151 54.5414 43.2226 54.0898C43.3254 53.6757 43.4789 53.2758 43.6797 52.8992C43.876 52.5311 44.1047 52.1811 44.3631 51.8535C44.6191 51.5294 44.8666 51.2127 45.1056 50.9034C45.1266 50.9103 45.1489 50.912 45.1707 50.9085C45.1926 50.905 45.2132 50.8963 45.2311 50.8833C45.2653 50.8541 45.2946 50.8195 45.3177 50.781C45.3437 50.7384 45.3724 50.6975 45.4036 50.6585C45.4323 50.6214 45.4717 50.594 45.5164 50.58C45.5734 50.4465 45.6678 50.3324 45.7883 50.2514C45.9083 50.1715 46.0064 50.0629 46.0736 49.9354C46.1451 49.9131 46.2123 49.8787 46.2723 49.8338C46.325 49.7919 46.3749 49.7465 46.4217 49.6979C46.4702 49.6486 46.521 49.6008 46.5711 49.5552C46.6259 49.5085 46.689 49.4723 46.757 49.4484V49.3028C46.8927 49.2339 47.0123 49.1372 47.1081 49.0189L47.38 48.6507C47.4599 48.6335 47.5241 48.6216 47.5727 48.6164C47.6469 48.6055 47.72 48.5888 47.7915 48.5663C47.8454 48.4606 47.9097 48.3605 47.9835 48.2675C48.0608 48.1832 48.1475 48.108 48.2419 48.0435C48.3544 48.0864 48.4734 48.1094 48.5938 48.1114C48.719 48.114 48.839 48.162 48.9314 48.2466C48.9342 48.3194 48.9625 48.3889 49.0113 48.4431C49.0566 48.4874 49.1067 48.5265 49.1607 48.5596C49.214 48.5939 49.2637 48.6305 49.3101 48.6694C49.3625 48.7141 49.3979 48.7756 49.4102 48.8434C49.4233 48.8479 49.4374 48.8482 49.4507 48.8445C49.4641 48.8408 49.4759 48.8331 49.4848 48.8225C49.4983 48.8031 49.5222 48.7964 49.5595 48.8016C49.5705 48.8862 49.6024 48.9668 49.6522 49.0361C49.7028 49.1026 49.7389 49.1789 49.7582 49.2602C49.7148 49.3504 49.6815 49.445 49.6589 49.5425C49.6482 49.5893 49.6279 49.6333 49.5994 49.6719C49.5708 49.7105 49.5347 49.7427 49.4931 49.7666C49.4841 49.8301 49.502 49.8615 49.5461 49.8607C49.5651 49.8592 49.584 49.865 49.5988 49.877C49.6137 49.8889 49.6234 49.9061 49.626 49.925C49.6323 49.9555 49.632 49.9871 49.625 50.0175C49.6181 50.0479 49.6047 50.0765 49.5857 50.1012C49.8021 50.4299 49.9929 50.7748 50.1563 51.1328C50.3196 51.4896 50.5104 51.8333 50.727 52.1605V52.1605ZM49.0695 53.6021C49.1001 53.5097 49.1471 53.4237 49.2085 53.3481C49.2717 53.2649 49.3068 53.1636 49.3086 53.0591C49.2731 53.0118 49.246 52.9587 49.2286 52.9022C49.2177 52.8391 49.2132 52.775 49.2152 52.711C49.0184 52.4544 48.8496 52.1774 48.7118 51.8849C48.5754 51.5958 48.4158 51.3183 48.2345 51.0551C48.2109 51.0994 48.1793 51.1389 48.1411 51.1716C48.097 51.2119 48.0485 51.2082 47.9917 51.1611C47.9795 51.2241 47.947 51.2813 47.8991 51.324C47.8581 51.3581 47.8068 51.3776 47.7535 51.3792C47.6974 51.3807 47.6414 51.3734 47.5876 51.3576C47.5329 51.3435 47.4811 51.32 47.4345 51.2881C47.1786 51.5197 46.9224 51.7467 46.6659 51.9693C46.4083 52.193 46.177 52.4454 45.9765 52.7215C45.9406 52.7431 45.9182 52.7521 45.91 52.7484C45.8813 52.7511 45.8538 52.7611 45.8301 52.7775C45.7619 52.9482 45.6752 53.111 45.5717 53.263C45.4721 53.4124 45.3725 53.5618 45.2729 53.7112C45.1753 53.8633 45.0908 54.0235 45.0204 54.1899C44.9464 54.3711 44.9059 54.5642 44.9009 54.7598C45.0574 54.871 45.2445 54.9308 45.4365 54.9309C45.6477 54.9343 45.8588 54.9155 46.0661 54.8749C46.2809 54.8341 46.4933 54.782 46.7025 54.7188C46.8906 54.6601 47.0836 54.6189 47.2791 54.5955C47.6152 54.4838 47.9361 54.3308 48.2345 54.1399C48.4999 53.9636 48.7782 53.7844 49.0695 53.6021V53.6021Z" fill="white"/>
<path d="M59.0024 55.404C58.7056 55.306 58.4478 55.1158 58.2667 54.861C58.072 54.5858 57.8928 54.3 57.7296 54.005L57.6497 53.8556C57.6236 53.8056 57.5967 53.76 57.5705 53.7182L57.3845 53.394L57.2785 53.1931L57.1194 53.3567L56.8811 53.595L56.7482 53.7444C56.5181 53.9819 56.2861 54.2174 56.052 54.451C55.8204 54.6816 55.5723 54.895 55.3096 55.0896C55.0528 55.2794 54.7776 55.4428 54.488 55.5773C54.1916 55.7129 53.8767 55.8033 53.5535 55.8455L53.2615 55.7319C53.0937 55.6617 52.9523 55.5975 52.8372 55.5392C52.6928 55.4607 52.5591 55.364 52.4391 55.2517C52.3951 55.177 52.3577 55.1023 52.3263 55.0388C52.295 54.9753 52.2621 54.9043 52.227 54.8371C52.14 54.6919 52.0605 54.5423 51.9887 54.389C51.9265 54.2545 51.8645 54.1021 51.8027 53.9318C51.8296 53.8059 51.8695 53.5917 51.9222 53.2895C51.975 52.9872 52.039 52.6551 52.1142 52.2931C52.1894 51.9316 52.2691 51.5671 52.3532 51.1996C52.4374 50.8321 52.5235 50.5111 52.6117 50.2368C52.6916 49.9978 52.782 49.7453 52.8835 49.4771C52.9795 49.2219 53.0903 48.9726 53.2152 48.7302C53.3238 48.5176 53.4551 48.3172 53.6066 48.1327C53.7192 47.9819 53.8758 47.8697 54.0547 47.8115C54.0919 47.8628 54.1422 47.903 54.2004 47.928C54.2534 47.9482 54.302 47.9654 54.3498 47.9781C54.4589 48.1255 54.5808 48.263 54.7143 48.3889C54.8446 48.5083 54.9843 48.6172 55.1318 48.7145C55.088 48.9401 55.024 49.1923 54.9398 49.4712C54.8557 49.75 54.7668 50.0264 54.6732 50.3003C54.5801 50.5806 54.4894 50.8545 54.4013 51.1219C54.3132 51.3893 54.2425 51.6178 54.1892 51.8076C54.1326 51.977 54.0882 52.1502 54.0562 52.3259C53.9581 52.7767 53.8833 53.2321 53.8321 53.6906C53.9583 53.6405 54.075 53.5692 54.1772 53.4799C54.3012 53.3784 54.42 53.2723 54.535 53.1625C54.668 53.0415 54.8002 52.9078 54.9331 52.7607C55.1014 52.5744 55.2429 52.4041 55.3574 52.2497C55.4719 52.0954 55.5802 51.9378 55.6823 51.7769C55.7819 51.6156 55.8857 51.4383 55.9938 51.2451C56.1018 51.0519 56.23 50.8236 56.3784 50.5602C56.5114 50.3331 56.6506 50.0901 56.796 49.8312C56.9414 49.5723 57.0873 49.322 57.2337 49.0805C57.3791 48.8395 57.5227 48.6182 57.6646 48.4165C57.7805 48.2471 57.9091 48.0868 58.0493 47.937C58.128 48.025 58.2197 48.1006 58.3212 48.1611C58.4299 48.2286 58.5483 48.2789 58.6723 48.3104C58.7253 48.3851 58.7761 48.4516 58.8216 48.5129C58.8672 48.5741 58.9173 48.6279 58.9613 48.6764C59.0146 48.7506 59.0644 48.8201 59.1107 48.8848C59.1593 48.9506 59.2056 49.0163 59.2504 49.082C59.2414 49.1448 59.228 49.2254 59.21 49.3248C59.1921 49.4241 59.1727 49.5324 59.1503 49.6497C59.1279 49.767 59.104 49.8872 59.0756 50.009C59.0472 50.1307 59.0226 50.2472 58.9957 50.3563C58.925 50.6999 58.8719 50.9576 58.8366 51.1294C58.8015 51.3011 58.7768 51.4363 58.7619 51.5349C58.747 51.6335 58.7395 51.7164 58.735 51.7829C58.7305 51.8494 58.7283 51.9413 58.7283 52.0563C58.7193 52.1444 58.7238 52.2333 58.7417 52.32C58.7511 52.4034 58.7689 52.4858 58.7948 52.5657C58.8189 52.6452 58.8547 52.7207 58.9008 52.7898L59.4311 52.3207C59.5983 52.1689 59.7434 51.9944 59.8621 51.8023C60.0107 51.5671 60.1437 51.3223 60.2602 51.0696C60.3882 50.7947 60.5142 50.496 60.6382 50.1733C60.7622 49.8506 60.8867 49.5232 61.0116 49.1911C61.1969 48.7026 61.3846 48.2268 61.5748 47.7637C61.7212 47.3854 61.9056 47.023 62.1253 46.6821C62.3042 46.7748 62.4749 46.8825 62.6355 47.0041C62.7775 47.1112 62.9046 47.2368 63.0134 47.3775C63.1248 47.5258 63.2123 47.6906 63.2726 47.866C63.3451 48.0839 63.3917 48.3095 63.4115 48.5383C63.2522 48.8649 63.0998 49.1998 62.9544 49.5429C62.809 49.886 62.6696 50.2283 62.5361 50.5699C62.3594 51.0136 62.1761 51.458 61.9864 51.9032C61.7994 52.3417 61.589 52.7698 61.356 53.1857C61.1337 53.5884 60.8789 53.9724 60.5941 54.3337C60.3122 54.6865 59.9818 54.9976 59.6126 55.2576C59.5297 55.2421 59.445 55.2379 59.3609 55.2449C59.2272 55.257 59.1011 55.313 59.0024 55.404V55.404Z" fill="white"/>
<path d="M65.4605 52.1093C65.422 52.1217 65.3867 52.1423 65.3569 52.1696C65.3271 52.1969 65.3036 52.2304 65.2879 52.2677C65.2528 52.3468 65.2192 52.4275 65.1886 52.5104C65.158 52.5933 65.1266 52.6695 65.096 52.7397C65.0856 52.7698 65.0672 52.7963 65.0427 52.8165C65.0181 52.8367 64.9885 52.8497 64.957 52.854C64.9483 52.9239 64.9227 52.9905 64.8823 53.0482C64.8428 53.105 64.8077 53.1647 64.7696 53.226C64.7345 53.2869 64.7076 53.3522 64.6896 53.4202C64.673 53.4975 64.6824 53.5781 64.7165 53.6495C64.6452 53.7111 64.5981 53.7961 64.5836 53.8892C64.5664 53.9886 64.5462 54.0842 64.5238 54.1746C64.5043 54.2611 64.4658 54.3423 64.411 54.4121C64.3588 54.4801 64.2617 54.5174 64.1197 54.5241C64.0936 54.5622 64.0884 54.5846 64.1063 54.5914C64.1242 54.5981 64.1377 54.628 64.1466 54.6803C64.0707 54.668 63.993 54.6836 63.9278 54.7243C63.8738 54.7623 63.8129 54.7892 63.7485 54.8035C63.5878 54.773 63.4413 54.6912 63.331 54.5705C63.2167 54.4458 63.1186 54.3073 63.0389 54.1581C62.9557 54.005 62.8809 53.8474 62.8149 53.6861C62.7484 53.5255 62.6849 53.3873 62.6229 53.2693C62.6491 53.1762 62.6537 53.0784 62.6363 52.9832C62.6232 52.9022 62.5912 52.8255 62.543 52.7591C62.9762 51.7926 63.4492 50.7596 63.9621 49.6601C64.475 48.5606 64.9613 47.4774 65.4209 46.4102C65.6254 46.4684 65.8269 46.5369 66.0244 46.6156C66.2161 46.6917 66.3983 46.7897 66.5674 46.9077C66.7292 47.0202 66.8706 47.1593 66.9857 47.3192C67.1018 47.4836 67.1785 47.6725 67.2098 47.8712C67.1926 47.9265 67.1724 47.9459 67.1508 47.9377C67.1291 47.9295 67.1082 47.9377 67.091 47.9639C67.1157 47.9892 67.1359 48.0185 67.1508 48.0505C67.1545 48.068 67.1545 48.086 67.1508 48.1035C67.1452 48.128 67.1429 48.1531 67.1441 48.1782C67.1478 48.2213 67.1613 48.2629 67.1836 48.3C67.1704 48.2964 67.1564 48.2965 67.1433 48.3003C67.1301 48.3041 67.1182 48.3115 67.109 48.3216C67.0963 48.3411 67.0671 48.344 67.0231 48.3306C67.0558 48.4044 67.0672 48.4859 67.0559 48.5659C67.0442 48.6258 67.0243 48.6839 66.9969 48.7384C66.9692 48.7916 66.9469 48.8474 66.9304 48.905C66.9131 48.9769 66.9178 49.0524 66.9439 49.1216C66.9213 49.1225 66.8998 49.1322 66.8841 49.1485C66.8717 49.162 66.8605 49.1764 66.8505 49.1918C66.8408 49.2072 66.8298 49.2217 66.8176 49.2351C66.81 49.2428 66.8003 49.2481 66.7897 49.2505C66.7791 49.2528 66.7681 49.2522 66.7579 49.2486C66.7842 49.4408 66.7929 49.6351 66.784 49.8289C66.7761 50.0246 66.7696 50.2221 66.7646 50.4213C66.7596 50.6204 66.7619 50.8278 66.7713 51.0434C66.7807 51.2658 66.8117 51.4867 66.864 51.703C67.1717 51.4934 67.4316 51.221 67.6266 50.9038C67.8216 50.5793 67.9773 50.2328 68.0904 49.8715C68.2132 49.4811 68.3041 49.0815 68.3623 48.6764C68.424 48.2537 68.4903 47.8219 68.561 47.3812C68.6424 47.2901 68.7056 47.1841 68.747 47.069C68.7913 46.9495 68.8311 46.8235 68.8665 46.6911C68.9018 46.5586 68.9372 46.4267 68.9725 46.2952C69.0054 46.1694 69.0496 46.0469 69.1047 45.9292C69.2234 45.9285 69.3401 45.9591 69.4431 46.0181C69.5339 46.0726 69.6203 46.134 69.7015 46.2018C69.7816 46.2684 69.8657 46.33 69.9533 46.3863C70.0534 46.4463 70.1682 46.4773 70.2849 46.476C70.391 46.6149 70.4883 46.7501 70.5769 46.8815C70.6643 47.0116 70.7231 47.1588 70.7495 47.3133C70.7041 47.391 70.6706 47.4751 70.6502 47.5627C70.6277 47.6539 70.6031 47.745 70.5755 47.8361C70.5497 47.9254 70.5141 48.0116 70.4694 48.0931C70.4224 48.1759 70.3592 48.2483 70.2834 48.3059C70.2573 48.539 70.2237 48.7541 70.1841 48.9468C70.1445 49.1395 70.1049 49.3337 70.0646 49.5234C70.0242 49.7132 69.9899 49.9096 69.9652 50.1113C69.9382 50.33 69.9295 50.5506 69.9391 50.7708C69.8684 50.9814 69.7937 51.2055 69.715 51.4431C69.6351 51.6813 69.5738 51.8957 69.529 52.0862C69.3909 52.2128 69.2785 52.365 69.1981 52.5343C69.1182 52.7024 69.0338 52.8712 68.9457 53.0392C68.9105 53.0788 68.8881 53.09 68.8799 53.0736C68.8717 53.0572 68.8396 53.0467 68.7866 53.0437C68.7957 53.0696 68.7957 53.0978 68.7866 53.1236C68.7781 53.1418 68.767 53.1587 68.7537 53.1737C68.7388 53.1912 68.7294 53.2128 68.7268 53.2357C68.7238 53.2717 68.7308 53.3079 68.747 53.3403C68.6221 53.4075 68.5099 53.496 68.4153 53.6017C68.319 53.7088 68.2148 53.8086 68.1039 53.9005C67.987 53.9954 67.8513 54.0644 67.7057 54.1029C67.5056 54.1452 67.298 54.1362 67.1022 54.0767C66.7442 53.8549 66.4204 53.5821 66.1409 53.2671C65.8472 52.9246 65.6167 52.5326 65.4605 52.1093V52.1093Z" fill="white"/>
<path d="M78.1361 49.1535C78.1267 49.2551 78.1358 49.3576 78.163 49.456C78.1893 49.5497 78.2225 49.6413 78.2623 49.7301C78.3019 49.8182 78.337 49.9094 78.3751 50.0027C78.4101 50.0945 78.4366 50.1892 78.4543 50.2858C78.4723 50.4199 78.4723 50.5558 78.4543 50.6899C78.437 50.8374 78.406 50.9829 78.3617 51.1246C78.3201 51.261 78.2621 51.392 78.1891 51.5145C78.127 51.6235 78.041 51.717 77.9374 51.7879C77.818 51.9569 77.6656 52.1 77.4893 52.2084C77.3137 52.3159 77.1495 52.441 76.9993 52.5819C76.9006 52.6548 76.7909 52.7115 76.6744 52.7499C76.5549 52.7895 76.4331 52.8299 76.3091 52.8695C76.212 52.9337 76.0972 53.0017 75.9648 53.0734C75.8318 53.1481 75.6952 53.2138 75.5532 53.278C75.4163 53.3396 75.2743 53.3896 75.129 53.4274C75.0072 53.4617 74.8819 53.482 74.7555 53.4879C74.5079 53.608 74.2479 53.7009 73.9802 53.765C73.6902 53.8256 73.3922 53.8382 73.0981 53.8024C72.8107 53.8796 72.5109 53.8989 72.216 53.8591C71.962 53.8236 71.7182 53.7353 71.5004 53.6C71.2917 53.4669 71.1077 53.2986 70.9567 53.1025C70.8035 52.9059 70.6764 52.6902 70.5787 52.4609C70.5063 52.0025 70.5243 51.5343 70.6317 51.0828C70.7345 50.6686 70.8881 50.2687 71.0888 49.8922C71.2852 49.524 71.5139 49.1741 71.7723 48.8465C72.0282 48.5223 72.2757 48.2056 72.5147 47.8964C72.5359 47.9032 72.5584 47.9049 72.5804 47.9012C72.6023 47.8976 72.6231 47.8888 72.641 47.8755C72.6749 47.8462 72.704 47.8117 72.7269 47.7731C72.7531 47.7309 72.7818 47.6903 72.8128 47.6514C72.8415 47.6143 72.8808 47.587 72.9256 47.573C72.9823 47.4393 73.0768 47.3251 73.1974 47.2443C73.3174 47.1645 73.4155 47.0558 73.4828 46.9284C73.5541 46.9057 73.6213 46.8714 73.6814 46.8268C73.7342 46.7848 73.7841 46.7394 73.8308 46.6908C73.8794 46.6408 73.9302 46.5937 73.9802 46.5482C74.0347 46.5013 74.0976 46.465 74.1654 46.4414V46.2957C74.3012 46.2266 74.421 46.13 74.5172 46.0119L74.7884 45.6436C74.8683 45.6265 74.9325 45.6145 74.9811 45.6093C75.0553 45.5981 75.1284 45.5811 75.1999 45.5585C75.2539 45.4528 75.3182 45.3527 75.3919 45.2597C75.4692 45.1754 75.5559 45.1002 75.6503 45.0356C75.7628 45.0783 75.8819 45.1011 76.0021 45.1029C76.1276 45.1061 76.2477 45.1544 76.3405 45.2388C76.3428 45.3116 76.3708 45.3812 76.4197 45.4353C76.4638 45.4794 76.5126 45.5184 76.5653 45.5518C76.6184 45.5861 76.6692 45.622 76.7184 45.6608C76.7704 45.7061 76.8055 45.7678 76.8178 45.8356C76.8529 45.8408 76.8775 45.8356 76.8925 45.8147C76.9017 45.8046 76.9136 45.7972 76.9268 45.7934C76.94 45.7896 76.9539 45.7894 76.9672 45.793C76.9786 45.8778 77.0103 45.9585 77.0598 46.0283C77.11 46.0937 77.1461 46.1687 77.1659 46.2487C77.1228 46.3392 77.0895 46.4341 77.0665 46.5317C77.0559 46.5786 77.0357 46.6227 77.0072 46.6612C76.9786 46.6998 76.9424 46.732 76.9007 46.7558C76.8917 46.8193 76.9097 46.8499 76.9537 46.8499C76.9727 46.8484 76.9916 46.8542 77.0065 46.8662C77.0213 46.8781 77.031 46.8953 77.0336 46.9142C77.0396 46.9447 77.0392 46.9761 77.0324 47.0065C77.0256 47.0368 77.0125 47.0654 76.9941 47.0905C77.21 47.4193 77.4005 47.7641 77.564 48.122C77.728 48.4799 77.9193 48.8248 78.1361 49.1535V49.1535ZM76.4787 50.5988C76.509 50.5062 76.5563 50.42 76.6184 50.3448C76.681 50.2613 76.7158 50.1602 76.7177 50.0558C76.6824 50.0084 76.6554 49.9553 76.6378 49.8989C76.6269 49.8358 76.6224 49.7717 76.6243 49.7077C76.4275 49.4511 76.2588 49.1741 76.1209 48.8816C75.9845 48.5925 75.8249 48.315 75.6436 48.0518C75.6201 48.0961 75.5884 48.1356 75.5503 48.1683C75.5062 48.2086 75.4576 48.2049 75.4009 48.1578C75.3887 48.2206 75.3561 48.2775 75.3082 48.3199C75.2664 48.3552 75.2136 48.375 75.1589 48.3759C75.1028 48.3769 75.0469 48.3696 74.993 48.3543C74.9398 48.3395 74.8893 48.316 74.8437 48.2848C74.5872 48.5163 74.331 48.7434 74.0751 48.966C73.8174 49.1897 73.5861 49.4421 73.3857 49.7182C73.3498 49.7398 73.3281 49.7488 73.3192 49.745C73.2906 49.7477 73.2631 49.7575 73.2393 49.7734C73.1712 49.9445 73.0845 50.1076 72.9808 50.2597C72.8812 50.4091 72.7816 50.5585 72.6821 50.7078C72.5844 50.86 72.5 51.0201 72.4296 51.1866C72.3555 51.3677 72.3152 51.5609 72.3108 51.7565C72.4661 51.8656 72.6514 51.924 72.8411 51.9238C73.0524 51.9272 73.2635 51.9085 73.4708 51.8678C73.6855 51.8267 73.8979 51.7746 74.1072 51.7117C74.2952 51.6532 74.4883 51.6119 74.6838 51.5885C75.02 51.4769 75.3409 51.3239 75.6391 51.1328C75.9075 50.9566 76.1874 50.7785 76.4787 50.5988Z" fill="white"/>
<path d="M86.4116 52.3962C86.1149 52.2982 85.8572 52.1083 85.6758 51.8539C85.4812 51.5787 85.3019 51.2929 85.1388 50.998L85.0596 50.8486C85.0327 50.7985 85.0059 50.753 84.9797 50.7111L84.7945 50.387L84.6877 50.186L84.5293 50.3496L84.2903 50.5879L84.1573 50.7373C83.9273 50.9748 83.6952 51.2103 83.4612 51.4439C83.2299 51.6747 82.9817 51.8879 82.7187 52.0817C82.4622 52.2721 82.1869 52.4358 81.8971 52.5702C81.6009 52.7059 81.2859 52.7963 80.9627 52.8384L80.6707 52.7249C80.5029 52.6546 80.3614 52.5904 80.2464 52.5321C80.1023 52.4536 79.9687 52.3569 79.849 52.2446C79.8075 52.1758 79.7698 52.1047 79.7363 52.0317C79.7049 51.9645 79.672 51.8973 79.6362 51.83C79.5391 51.6642 79.4596 51.5148 79.3979 51.3819C79.3362 51.2489 79.2742 51.0965 79.2119 50.9247C79.2388 50.7988 79.2786 50.5844 79.3314 50.2816C79.3842 49.9789 79.4482 49.647 79.5234 49.286C79.5991 48.9245 79.6787 48.56 79.7624 48.1925C79.8461 47.825 79.9322 47.5041 80.0208 47.2297C80.1008 46.9907 80.1911 46.7382 80.2927 46.47C80.3886 46.2148 80.4993 45.9654 80.6244 45.7231C80.733 45.5105 80.8642 45.3101 81.0157 45.1256C81.1284 44.9748 81.285 44.8627 81.4639 44.8044C81.5023 44.856 81.5539 44.8962 81.6133 44.9209C81.6663 44.9411 81.7149 44.9583 81.7627 44.971C81.872 45.1182 81.994 45.2557 82.1272 45.3818C82.2577 45.5009 82.3973 45.6098 82.5447 45.7074C82.5009 45.933 82.4369 46.1852 82.3528 46.4641C82.2686 46.7429 82.1802 47.0223 82.0876 47.3021C81.995 47.5825 81.9043 47.8564 81.8157 48.1238C81.7271 48.3912 81.6564 48.62 81.6036 48.8102C81.5473 48.9797 81.5029 49.1529 81.4706 49.3286C81.3722 49.7792 81.2974 50.2347 81.2466 50.6932C81.3723 50.6428 81.4887 50.5716 81.5909 50.4826C81.7149 50.383 81.8344 50.2772 81.9494 50.1651C82.0816 50.0441 82.2146 49.9104 82.3468 49.7633C82.5151 49.5775 82.6565 49.4072 82.771 49.2524C82.8856 49.0975 82.9939 48.9399 83.096 48.7796C83.1975 48.6182 83.3014 48.4405 83.4074 48.2477C83.5135 48.055 83.642 47.8265 83.7921 47.5628C83.925 47.3357 84.0642 47.0927 84.2096 46.8338C84.355 46.5749 84.5009 46.3259 84.6473 46.0869C84.7937 45.8449 84.9374 45.6235 85.0783 45.4229C85.1942 45.2535 85.3228 45.0932 85.463 44.9433C85.5417 45.0314 85.6334 45.107 85.7349 45.1674C85.8438 45.2349 85.9624 45.2853 86.0867 45.3168C86.1394 45.3905 86.1892 45.4577 86.236 45.5185C86.2846 45.5797 86.3309 45.6342 86.375 45.6828C86.428 45.7575 86.4788 45.8262 86.5244 45.8912C86.5699 45.9562 86.6192 46.0226 86.664 46.0884C86.6551 46.1511 86.6416 46.2318 86.6237 46.3311C86.6058 46.4305 86.5864 46.5388 86.5647 46.656C86.543 46.7733 86.5176 46.8928 86.49 47.0153C86.4624 47.1378 86.437 47.2528 86.4101 47.3619C86.3354 47.7062 86.2868 47.9639 86.251 48.1357C86.2151 48.3075 86.192 48.4427 86.1763 48.5413C86.1606 48.6399 86.1539 48.7228 86.1494 48.7893C86.1449 48.8557 86.1427 48.9476 86.1427 49.0619C86.1336 49.15 86.1382 49.2389 86.1561 49.3256C86.1662 49.4092 86.1839 49.4917 86.2092 49.5721C86.2337 49.6514 86.2694 49.7269 86.3152 49.7961L86.8455 49.3271C87.0129 49.1755 87.158 49.0009 87.2765 48.8087C87.4254 48.5736 87.5584 48.3288 87.6746 48.076C87.8026 47.8011 87.9286 47.5023 88.0526 47.1796C88.1766 46.857 88.3011 46.5296 88.426 46.1974C88.6113 45.7079 88.799 45.2321 88.9892 44.77C89.1356 44.3918 89.32 44.0294 89.5397 43.6885C89.7187 43.7813 89.8896 43.889 90.0506 44.0104C90.1923 44.1179 90.3193 44.2435 90.4286 44.3839C90.5397 44.5325 90.6269 44.6975 90.687 44.8731C90.7599 45.0909 90.8065 45.3165 90.8259 45.5453C90.6666 45.8725 90.5142 46.2076 90.3688 46.5507C90.2234 46.8938 90.084 47.2362 89.9505 47.5777C89.7743 48.0214 89.591 48.4659 89.4008 48.911C89.2138 49.3495 89.0034 49.7776 88.7704 50.1935C88.546 50.5956 88.289 50.9786 88.0018 51.3386C87.7201 51.6913 87.3896 52.0021 87.0203 52.2618C86.9373 52.2468 86.8527 52.2428 86.7686 52.2498C86.637 52.259 86.5118 52.3103 86.4116 52.3962V52.3962Z" fill="white"/>
</g>
<defs>
<clipPath id="clip0">
<rect width="96" height="28.5051" fill="white" transform="translate(0 34)"/>
</clipPath>
</defs>
</svg>
