<svg width="208" height="208" viewBox="0 0 208 208" fill="none" xmlns="http://www.w3.org/2000/svg">
<rect width="208" height="208" rx="5.74586" fill="#FC7E0F"/>
<path d="M104.575 178.121C64.057 178.232 31.1325 145.46 31.0283 104.948V104.574C31.0283 63.8172 63.8241 31.0276 104.575 31.0276C145.326 31.0276 178.122 63.8172 178.122 104.574C178.122 145.325 145.326 178.121 104.575 178.121ZM104.575 149.003L110.091 143.493L104.575 122.348L99.0593 143.493L104.575 149.003ZM97.527 148.696L94.769 159.122L101.204 152.674L97.527 148.696ZM111.624 148.696L107.946 152.38L114.382 158.821L111.624 148.696ZM116.833 167.708L104.575 155.444L92.3175 167.708C96.3013 168.321 100.285 168.928 104.575 168.928C108.866 168.928 112.849 168.621 116.833 167.708ZM104.575 40.2209C69.0337 40.2209 40.2217 69.0329 40.2217 104.574C40.1727 131.958 57.5359 156.339 83.4367 165.244L97.2267 114.068C94.0948 111.788 92.2684 108.135 92.3175 104.262C92.3175 97.5139 97.8335 91.9979 104.575 91.9979C111.317 91.9979 116.833 97.5139 116.833 104.262C116.833 108.239 114.988 111.617 111.924 114.068L125.714 165.244C151.621 156.339 168.984 131.952 168.929 104.574C168.929 69.0329 140.117 40.2209 104.575 40.2209ZM146.558 136.445C144.995 138.4 142.182 138.804 140.129 137.364C138.211 136.095 137.678 133.515 138.94 131.597C139.026 131.468 139.112 131.352 139.21 131.229C139.21 131.229 147.484 120.203 147.484 104.568C147.484 88.9334 139.21 77.9076 139.21 77.9076C137.745 76.1363 137.996 73.5009 139.768 72.0422C139.89 71.9441 140.007 71.8522 140.135 71.7725C142.188 70.3322 145.002 70.7367 146.564 72.6919C147.177 73.3109 156.677 85.869 156.677 104.562C156.677 123.255 147.165 135.832 146.558 136.445ZM124.182 124.493C122.343 122.655 122.656 119.284 124.494 117.445C124.494 117.445 129.091 112.548 129.091 104.574C129.091 96.6007 124.494 92.004 124.494 91.7037C122.656 89.8589 122.656 86.7945 124.182 84.6555C125.604 82.7984 128.264 82.4675 130.121 83.8894C130.298 84.0242 130.464 84.1774 130.623 84.3429C130.936 84.6555 138.284 92.3166 138.284 104.574C138.284 116.832 130.936 124.493 130.623 124.806C128.778 126.638 126.026 126.338 124.182 124.493ZM84.9689 124.493C83.1241 126.338 80.3722 126.638 78.5274 124.806C78.2148 124.181 70.8663 116.832 70.8663 104.574C70.8663 92.3166 78.2148 84.9681 78.5274 84.3429C80.3722 82.5104 83.4367 82.5104 84.9689 84.6555C86.8076 86.4942 86.495 89.865 84.6563 91.7037C84.6563 92.004 80.0596 96.6007 80.0596 104.574C80.0596 112.548 84.6563 117.445 84.6563 117.445C86.495 119.284 86.8076 122.342 84.9689 124.493ZM69.0215 137.37C66.9683 138.804 64.1551 138.406 62.5861 136.451C61.9855 135.832 52.4795 123.268 52.4795 104.574C52.4795 85.8813 61.9855 73.317 62.5861 72.7041C64.1551 70.749 66.9683 70.3384 69.0215 71.7848C70.9398 73.0473 71.473 75.6337 70.2105 77.5521C70.1308 77.6747 70.0389 77.7972 69.9469 77.9137C69.9469 77.9137 61.6729 88.9396 61.6729 104.574C61.6729 120.209 69.9469 131.235 69.9469 131.235C71.4792 133.074 70.8663 135.832 69.0215 137.37Z" fill="white"/>
</svg>
