<svg width="208" height="208" viewBox="0 0 208 208" fill="none" xmlns="http://www.w3.org/2000/svg">
<rect width="208" height="208" rx="5.74586" fill="#F34336"/>
<path d="M104.575 31.0276C63.9528 31.0276 31.0283 63.9521 31.0283 104.575C31.0283 145.197 63.9528 178.122 104.575 178.122C145.198 178.122 178.122 145.197 178.122 104.575C178.122 63.9521 145.198 31.0276 104.575 31.0276ZM126.419 104.575C126.419 100.254 125.138 96.0311 122.737 92.439C120.337 88.8469 116.926 86.0471 112.934 84.3938C108.943 82.7406 104.551 82.308 100.314 83.1508C96.0766 83.9937 92.1845 86.074 89.1296 89.1289C86.0748 92.1838 83.9944 96.0759 83.1516 100.313C82.3087 104.55 82.7413 108.942 84.3946 112.934C86.0479 116.925 88.8476 120.337 92.4397 122.737C96.0319 125.137 100.255 126.418 104.575 126.418V138.896C97.7871 138.896 91.1513 136.884 85.507 133.112C79.8628 129.341 75.4637 123.98 72.866 117.709C70.2682 111.437 69.5885 104.536 70.9129 97.8787C72.2372 91.2209 75.506 85.1053 80.306 80.3053C85.106 75.5053 91.2216 72.2364 97.8794 70.9121C104.537 69.5878 111.438 70.2675 117.71 72.8652C123.981 75.463 129.342 79.8621 133.113 85.5063C136.884 91.1505 138.897 97.7863 138.897 104.575H126.419ZM147.478 104.575C147.478 96.0893 144.962 87.7945 140.247 80.7393C135.533 73.684 128.833 68.1851 120.993 64.9379C113.154 61.6907 104.528 60.8411 96.2054 62.4965C87.8832 64.1519 80.2387 68.238 74.2387 74.238C68.2387 80.238 64.1526 87.8825 62.4972 96.2047C60.8418 104.527 61.6915 113.153 64.9386 120.993C68.1858 128.832 73.6847 135.532 80.74 140.247C87.7953 144.961 96.09 147.477 104.575 147.477V161.776C89.4046 161.776 74.8553 155.749 64.128 145.022C53.4007 134.295 47.3741 119.745 47.3741 104.575C47.3741 89.4039 53.4007 74.8545 64.128 64.1272C74.8553 53.3999 89.4046 47.3734 104.575 47.3734C112.087 47.3734 119.525 48.853 126.465 51.7276C133.405 54.6022 139.711 58.8156 145.023 64.1272C150.334 69.4388 154.548 75.7447 157.422 82.6846C160.297 89.6246 161.776 97.0628 161.776 104.575H147.478Z" fill="white"/>
</svg>
