<svg width="208" height="208" viewBox="0 0 208 208" fill="none" xmlns="http://www.w3.org/2000/svg">
<rect width="208" height="208" rx="5.74586" fill="black"/>
<path fill-rule="evenodd" clip-rule="evenodd" d="M104.575 31.0276C64.1245 31.0276 31.0283 64.1237 31.0283 104.575C31.0283 145.025 64.1245 178.122 104.575 178.122C145.026 178.122 178.122 145.025 178.122 104.575C178.122 64.1237 145.394 31.0276 104.575 31.0276ZM138.407 137.303C136.936 139.509 134.362 140.245 132.155 138.774C114.872 128.11 93.1755 125.903 67.4341 131.787C64.8599 132.522 62.6535 130.684 61.918 128.477C61.1826 125.903 63.0213 123.697 65.2277 122.961C93.1755 116.71 117.446 119.284 136.568 131.051C139.142 132.155 139.51 135.097 138.407 137.303ZM147.233 117.078C145.394 119.652 142.084 120.755 139.51 118.916C119.652 106.781 89.4982 103.104 66.3309 110.458C63.389 111.194 60.0794 109.723 59.3439 106.781C58.6084 103.839 60.0794 100.529 63.0213 99.794C89.8659 91.7038 122.962 95.7489 145.762 109.723C147.968 110.826 149.071 114.503 147.233 117.078ZM147.968 96.4844C124.433 82.5105 85.0853 81.0395 62.6535 88.0265C58.9762 89.1297 55.2988 86.9233 54.1956 83.6137C53.0924 79.9363 55.2988 76.259 58.6084 75.1558C84.7176 67.4333 127.743 68.9043 154.955 85.0846C158.265 86.9233 159.368 91.3361 157.529 94.6457C155.69 97.2199 151.278 98.3231 147.968 96.4844Z" fill="#01DC4E"/>
</svg>
